<svg width="45" height="45" viewBox="0 0 45 45" fill="none" xmlns="http://www.w3.org/2000/svg">
    <g clip-path="url(#clip0_63_217)">
        <path d="M27.0562 36.3081C27.288 36.418 27.5499 36.4108 27.7666 36.3078C29.5447 35.4642 31.2417 33.8626 31.2396 31.8034C31.2372 29.8056 28.7893 28.8116 27.4078 30.2189C25.9944 28.8013 23.5729 29.8258 23.575 31.8113C23.577 33.9162 25.375 35.5147 27.0562 36.3081ZM26.6271 31.3519C26.7486 31.5661 27.0631 31.801 27.4312 31.7934C27.7432 31.7858 28.0282 31.6053 28.1848 31.3536C28.7293 30.4781 29.9203 30.9145 29.9213 31.8047C29.9227 33.2206 28.6496 34.3577 27.4092 35.0121C26.1567 34.3666 24.8947 33.2203 24.8933 31.8099C24.8923 30.8688 26.1547 30.521 26.6271 31.3519Z" fill="#1AB9CA"/>
        <path d="M23.3398 44.3408C23.3398 44.7047 23.6351 45 23.999 45H35.9443C36.8719 45 37.6269 44.2453 37.6269 43.3177C37.6269 42.2187 37.6269 34.1153 37.6269 33.2954C37.6269 32.9315 37.3316 32.6362 36.9677 32.6362C36.6034 32.6362 36.3082 32.9315 36.3082 33.2954V36.4722H32.8736C31.9466 36.4722 31.1913 37.2268 31.1913 38.1548V43.6816H23.999C23.6351 43.6816 23.3398 43.9765 23.3398 44.3408ZM32.5097 38.1548C32.5097 37.9605 32.6676 37.7905 32.8736 37.7905H36.3085V43.3173C36.3085 43.5182 36.1451 43.6816 35.9443 43.6816H32.5097V38.1548Z" fill="#1AB9CA"/>
        <path d="M10.7865 24.2073C10.7824 24.2091 10.7783 24.2108 10.7742 24.2125C10.632 24.2709 7.29492 25.6874 7.29492 29.5852V43.3177C7.29492 44.2454 8.04955 45 8.9772 45H20.9228C21.2867 45 21.582 44.7047 21.582 44.3408C21.582 43.9766 21.2867 43.6816 20.9228 43.6816H13.7305V38.1548C13.7305 37.2268 12.9759 36.4722 12.0482 36.4722H8.61328V29.5852C8.61328 26.6175 11.1168 25.4996 11.2713 25.4337L16.7542 23.3078C17.6746 25.2747 20.3 26.2659 22.4564 26.2659C24.6094 26.2659 27.2379 25.2768 28.159 23.3072L33.6504 25.4337C33.7692 25.4845 36.3081 26.6168 36.3081 29.5852V30.2189C36.3081 30.5832 36.6034 30.8784 36.9676 30.8784C37.3315 30.8784 37.6268 30.5832 37.6268 30.2189V29.5852C37.6268 25.6874 34.2894 24.2709 34.1476 24.2125C34.1431 24.2104 34.139 24.2091 34.1349 24.2073L26.2539 21.1552V20.8311H29.1165C30.0407 20.8311 30.793 20.0789 30.793 19.1543V14.298C31.5325 13.3401 31.5332 12.0757 30.793 11.1168V8.3321C30.793 3.73775 27.0552 0 22.4605 0C17.8662 0 14.1284 3.73775 14.1284 8.3321V19.1543C14.1284 20.0789 14.8806 20.8311 15.8052 20.8311H18.6589V21.1555L10.7865 24.2073ZM12.0482 37.7906C12.2477 37.7906 12.4121 37.9571 12.4121 38.1548V43.6816H8.97755C8.7767 43.6816 8.61328 43.5182 8.61328 43.3177V37.7909H12.0482V37.7906ZM29.4746 19.1547C29.4746 19.3521 29.3139 19.5127 29.1165 19.5127H26.339C27.5527 18.5545 28.4151 17.1301 28.6304 15.49C28.9033 15.4605 29.1996 15.3908 29.4746 15.282V19.1547ZM30.0291 12.7074C30.0291 13.4222 29.3925 13.9931 28.685 14.1452V11.2696C29.4032 11.4248 30.0291 12.0008 30.0291 12.7074ZM15.8052 19.5127C15.6078 19.5127 15.4471 19.3521 15.4471 19.1547V8.3321C15.4471 4.46491 18.5933 1.31836 22.4609 1.31836C26.3284 1.31836 29.4746 4.46491 29.4746 8.3321V10.1332C29.2315 10.037 28.9514 9.96426 28.6781 9.93061C28.629 9.47502 28.3135 9.0802 27.8565 8.94115C26.8623 8.63903 25.7653 7.99633 24.8277 7.02919C24.3426 6.52897 23.5513 6.57051 23.1111 7.07245C21.5109 8.89755 19.291 10.7148 17 11.5607C16.5434 11.7293 16.2368 12.1698 16.2368 12.6562V14.6863C16.2368 16.5924 17.1136 18.3661 18.5851 19.5127H15.8052ZM17.5551 14.6863V12.7606C19.9553 11.8484 22.271 9.99378 23.9952 8.06293C25.0275 9.09153 26.2326 9.80324 27.3663 10.1692V14.6863C27.3663 17.3124 25.2294 19.5127 22.5402 19.5127C19.5708 19.5127 17.5551 17.2039 17.5551 14.6863ZM24.9355 20.345V21.3609C23.599 22.8059 21.3121 22.8038 19.9776 21.3609V20.3271C21.4621 20.9513 23.3078 21.0378 24.9355 20.345ZM19.133 22.3857C19.1382 22.3908 19.1437 22.3956 19.1488 22.4008C20.9805 24.2211 23.954 24.2156 25.7801 22.3857L26.9258 22.8292C25.984 24.6859 21.9524 25.972 18.858 23.8328C18.49 23.5784 18.192 23.2327 17.9877 22.8299L19.133 22.3857Z" fill="#1AB9CA"/>
    </g>
    <defs>
        <clipPath id="clip0_63_217">
            <rect width="45" height="45" fill="white"/>
        </clipPath>
    </defs>
</svg>
