<svg width="49" height="49" viewBox="0 0 49 49" fill="none" xmlns="http://www.w3.org/2000/svg">
    <g clip-path="url(#clip0_62_172)">
        <path d="M30.042 19.9485L22.6797 26.9023L19.1464 23.2672C18.7547 22.8639 18.1097 22.8548 17.7068 23.2465C17.3035 23.6386 17.2943 24.2832 17.686 24.6864L21.9238 29.0367C22.3175 29.4328 22.9538 29.4464 23.3638 29.067L31.4616 21.4291C31.6583 21.2436 31.7732 20.9876 31.7808 20.7175C31.7883 20.4475 31.6882 20.1854 31.5023 19.9891C31.1082 19.5795 30.4584 19.5615 30.042 19.9485Z" fill="#1AB9CA"/>
        <path d="M24.5789 9.24664C16.1647 9.24664 9.323 16.0884 9.323 24.5025C9.323 32.917 16.1647 39.7588 24.5789 39.7588C32.9934 39.7588 39.8351 32.917 39.8351 24.5025C39.8351 16.0884 32.9934 9.24664 24.5789 9.24664ZM24.5789 37.7165C17.288 37.7165 11.3653 31.7834 11.3653 24.5025C11.3653 17.2216 17.288 11.2889 24.5789 11.2889C31.8769 11.2889 37.7928 17.2049 37.7928 24.5025C37.7928 31.8001 31.8769 37.7165 24.5789 37.7165Z" fill="#1AB9CA"/>
        <path d="M45.574 18.8861L45.911 12.8306C45.9346 12.4241 45.7136 12.0424 45.3494 11.8605L39.9576 9.13411L37.2312 3.74234C37.0457 3.38135 36.6664 3.16156 36.2611 3.18071L30.1952 3.5078L25.1405 0.168308C24.7999 -0.0562655 24.3583 -0.0562655 24.0173 0.168308L18.9625 3.5078L12.9074 3.17074C12.5006 3.1468 12.1192 3.36779 11.9373 3.73237L9.21053 9.12414L3.81916 11.8505C3.45777 12.0356 3.23838 12.415 3.25753 12.8206L3.59419 18.8761L0.2551 23.9308C0.0305264 24.2715 0.0305264 24.7131 0.2551 25.0541L3.58422 30.1188L3.24716 36.1743C3.22362 36.5808 3.44421 36.9625 3.80879 37.1444L9.20056 39.8708L11.927 45.2626C12.112 45.624 12.4914 45.8433 12.8971 45.8242L18.9526 45.4871L24.0073 48.8262C24.3459 49.058 24.7919 49.058 25.1306 48.8262L30.1853 45.4871L36.2408 45.8242C36.6472 45.8477 37.0286 45.6267 37.2109 45.2626L39.9373 39.8708L45.329 37.1444C45.69 36.9589 45.9098 36.58 45.8907 36.1743L45.5536 30.1188L48.8927 25.0641C49.1173 24.7234 49.1173 24.2815 48.8927 23.9408L45.574 18.8861ZM43.6744 29.2815C43.55 29.4642 43.4922 29.684 43.5113 29.9046L43.8276 35.633L38.7322 38.2062C38.538 38.3036 38.3804 38.4615 38.2831 38.6558L35.7095 43.7512L29.981 43.4349C29.7616 43.4269 29.545 43.4835 29.358 43.598L24.5789 46.7536L19.8002 43.598C19.6343 43.4859 19.4388 43.4253 19.2386 43.4245H19.1875L13.4587 43.7412L10.8855 38.6454C10.7881 38.4512 10.6306 38.2936 10.4359 38.1963L5.33015 35.633L5.64687 29.9046C5.65485 29.6852 5.59781 29.4686 5.48332 29.2815L2.32812 24.5025L5.48332 19.7234C5.60818 19.5411 5.66602 19.3209 5.64687 19.1007L5.33015 13.3719L10.4259 10.7987C10.6202 10.7013 10.7778 10.5438 10.8751 10.3495L13.4483 5.25373L19.1771 5.57044C19.3961 5.57802 19.6127 5.52138 19.8002 5.4069L24.5789 2.2517L29.358 5.4069C29.5407 5.53175 29.7608 5.58959 29.981 5.57044L35.7095 5.25373L38.2831 10.3495C38.3804 10.5438 38.538 10.7013 38.7322 10.7987L43.8276 13.3719L43.5113 19.1007C43.5033 19.3197 43.5604 19.5363 43.6744 19.7234L46.8301 24.5025L43.6744 29.2815Z" fill="#1AB9CA"/>
    </g>
    <defs>
        <clipPath id="clip0_62_172">
            <rect width="49" height="49" fill="white"/>
        </clipPath>
    </defs>
</svg>
