<svg width="48" height="48" viewBox="0 0 48 48" fill="none" xmlns="http://www.w3.org/2000/svg">
    <path d="M44.8 2.40002H8C6.2327 2.40002 4.8 3.83272 4.8 5.60002V31.2H0.8C0.3582 31.2 0 31.5582 0 32C0 33.7673 1.4327 35.2 3.2 35.2H26.4V44.8C26.4001 45.2418 26.7583 45.5999 27.2002 45.5998C27.4123 45.5998 27.6156 45.5155 27.7656 45.3656L32 41.1312L36.2344 45.3656C36.3844 45.5156 36.5878 45.6 36.8 45.6C36.9052 45.6003 37.0093 45.5797 37.1064 45.5392C37.4053 45.4153 37.6001 45.1235 37.6 44.8V35.2H40C41.7673 35.2 43.2 33.7673 43.2 32V6.40002H47.2C47.6418 6.40002 48 6.04182 48 5.60002C48 3.83272 46.5673 2.40002 44.8 2.40002ZM41.6 5.60002V31.2H38.4V32.8H41.3848C41.0991 33.2948 40.5713 33.5997 40 33.6H37.6V32.8H36V42.8688L32.5656 39.4344C32.2532 39.1221 31.7468 39.1221 31.4344 39.4344L28 42.8688V32.8H26.4V33.6H3.2C2.6287 33.5997 2.1009 33.2948 1.8152 32.8H5.6H25.6V31.2H6.4V5.60002C6.4 4.71632 7.1163 4.00002 8 4.00002H42.0448C41.7569 4.48432 41.6033 5.03662 41.6 5.60002ZM43.4152 4.80002C43.8578 4.03522 44.8366 3.77402 45.6015 4.21672C45.8436 4.35682 46.0447 4.55802 46.1848 4.80002H43.4152Z" fill="#1AB9CA"/>
    <path d="M39.5415 27.436L38.5167 25.6L39.5455 23.7656C39.7623 23.3806 39.626 22.8928 39.2411 22.676C39.2217 22.6651 39.2018 22.6549 39.1815 22.6456L37.2719 21.7712L37.0255 19.6832C36.9734 19.2445 36.5754 18.9311 36.1367 18.9832C36.1163 18.9856 36.096 18.9888 36.0759 18.9928L34.0135 19.4016L32.5871 17.8568C32.2678 17.5325 31.7461 17.5284 31.4218 17.8477C31.4187 17.8507 31.4157 17.8538 31.4127 17.8568L29.9863 19.4016L27.9239 18.9928C27.4905 18.9071 27.0696 19.189 26.9839 19.6224C26.9799 19.6425 26.9767 19.6628 26.9743 19.6832L26.7279 21.7712L24.8183 22.6472C24.4166 22.8311 24.24 23.3059 24.4239 23.7076C24.4332 23.7279 24.4433 23.7478 24.4543 23.7672L25.4831 25.6L24.4543 27.4344C24.2375 27.8194 24.3738 28.3072 24.7587 28.524C24.7781 28.5349 24.798 28.5451 24.8183 28.5544L26.7279 29.4304L26.9743 31.52C27.0264 31.9587 27.4244 32.2721 27.8631 32.22C27.8835 32.2176 27.9038 32.2144 27.9239 32.2104L29.9863 31.8016L31.4127 33.3464C31.7128 33.6707 32.2189 33.6903 32.5432 33.3903C32.5584 33.3762 32.573 33.3616 32.5871 33.3464L34.0135 31.8016L36.0759 32.2104C36.2945 32.2551 36.5218 32.2051 36.7015 32.0728C36.8803 31.941 36.9962 31.7407 37.0215 31.52L37.2679 29.432L39.1775 28.556C39.5792 28.3721 39.7558 27.8973 39.5719 27.4956C39.5626 27.4753 39.5524 27.4554 39.5415 27.436ZM36.9023 25.9904L37.7255 27.4592L36.1959 28.1608C35.9423 28.2772 35.7677 28.5173 35.7351 28.7944L35.5383 30.4688L33.8847 30.1416C33.6122 30.085 33.3301 30.1762 33.1423 30.3816L31.9999 31.62L30.8575 30.3832C30.7061 30.2195 30.4933 30.1264 30.2703 30.1264C30.2181 30.1261 30.1661 30.1315 30.1151 30.1424L28.4615 30.4696L28.2647 28.7952C28.2321 28.5181 28.0575 28.278 27.8039 28.1616L26.2743 27.46L27.0975 25.9912C27.2351 25.7472 27.2384 25.4509 27.0975 25.2088V25.212L26.2743 23.7432L27.8039 23.0416C28.0575 22.9252 28.2321 22.6851 28.2647 22.408L28.4615 20.7336L30.1151 21.0608C30.3875 21.1167 30.6693 21.0256 30.8575 20.8208L31.9999 19.58L33.1423 20.8168C33.33 21.0223 33.6122 21.1135 33.8847 21.0568L35.5383 20.7296L35.7351 22.404C35.7677 22.6811 35.9423 22.9212 36.1959 23.0376L37.7255 23.7392L36.9023 25.208C36.7661 25.451 36.7661 25.7474 36.9023 25.9904Z" fill="#1AB9CA"/>
    <path d="M32 21.6C29.7909 21.6 28 23.3909 28 25.6C28.0026 27.808 29.792 29.5973 32 29.6C34.2091 29.6 36 27.8091 36 25.6C36 23.3909 34.2091 21.6 32 21.6ZM32 28C30.6745 28 29.6 26.9255 29.6 25.6C29.6 24.2745 30.6745 23.2 32 23.2C33.3255 23.2 34.4 24.2745 34.4 25.6C34.4 26.9255 33.3255 28 32 28Z" fill="#1AB9CA"/>
    <path d="M30.4001 7.19995H17.6001V8.79995H30.4001V7.19995Z" fill="#1AB9CA"/>
    <path d="M38.4001 12H9.6001V13.6H38.4001V12Z" fill="#1AB9CA"/>
    <path d="M38.4001 15.2H9.6001V16.8H38.4001V15.2Z" fill="#1AB9CA"/>
    <path d="M20.7999 25.6H10.3999V27.2H20.7999V25.6Z" fill="#1AB9CA"/>
</svg>
