<svg width="45" height="45" viewBox="0 0 45 45" fill="none" xmlns="http://www.w3.org/2000/svg">
    <path d="M36.1719 41.7413C35.9603 41.7413 35.751 41.6675 35.5831 41.5251L26.4623 33.793H6.25546C2.80616 33.7929 0 30.9712 0 27.5027V9.54887C0 6.08038 2.80616 3.25861 6.25546 3.25861H38.7445C42.1938 3.25861 45 6.08047 45 9.54887V27.5027C45 30.9712 42.1938 33.7929 38.7445 33.7929H37.085V40.823C37.085 41.1803 36.879 41.5051 36.5567 41.6556C36.4337 41.7131 36.3024 41.7413 36.1719 41.7413ZM6.25546 5.09534C3.81334 5.09534 1.82654 7.09316 1.82654 9.54887V27.5027C1.82654 29.9583 3.81334 31.9562 6.25546 31.9562H26.7958C27.0113 31.9562 27.2198 32.0328 27.3846 32.1724L35.2584 38.8475V32.8746C35.2584 32.3674 35.6674 31.9562 36.1717 31.9562H38.7445C41.1867 31.9562 43.1735 29.9583 43.1735 27.5027V9.54887C43.1735 7.09316 41.1867 5.09534 38.7445 5.09534H6.25546Z" fill="#1AB9CA"/>
    <path d="M37.2093 13.543H7.79067C7.2863 13.543 6.87744 13.1318 6.87744 12.6247C6.87744 12.1175 7.2863 11.7063 7.79067 11.7063H37.2092C37.7136 11.7063 38.1224 12.1175 38.1224 12.6247C38.1224 13.1318 37.7136 13.543 37.2093 13.543Z" fill="#1AB9CA"/>
    <path d="M37.2093 19.4237H7.79067C7.2863 19.4237 6.87744 19.0125 6.87744 18.5053C6.87744 17.9981 7.2863 17.587 7.79067 17.587H37.2092C37.7136 17.587 38.1224 17.9981 38.1224 18.5053C38.1224 19.0125 37.7136 19.4237 37.2093 19.4237Z" fill="#1AB9CA"/>
    <path d="M37.2093 25.3044H7.79067C7.2863 25.3044 6.87744 24.8932 6.87744 24.3861C6.87744 23.8789 7.2863 23.4677 7.79067 23.4677H37.2092C37.7136 23.4677 38.1224 23.8788 38.1224 24.3861C38.1224 24.8932 37.7136 25.3044 37.2093 25.3044Z" fill="#1AB9CA"/>
</svg>
