<svg width="48" height="54" viewBox="0 0 48 54" fill="none" xmlns="http://www.w3.org/2000/svg">
    <path d="M45.4079 9.06077C38.5442 7.1803 31.3485 4.1285 25.1475 0.467253C24.4395 0.0492456 23.5605 0.0492456 22.8536 0.467253C16.3807 4.28823 9.75374 7.09874 2.5921 9.06077C1.61108 9.32925 0.931396 10.2208 0.931396 11.2369V22.2716C0.931396 34.0438 6.3655 41.8387 10.9239 46.3054C16.1745 51.4495 21.8295 53.8454 23.9989 53.8454C26.1682 53.8454 31.8243 51.4495 37.0738 46.3054C41.6322 41.8387 47.0663 34.0427 47.0663 22.2716V11.2369C47.0686 10.2208 46.3878 9.32925 45.4079 9.06077ZM44.1641 21.8468C44.1641 32.7932 39.1797 40.0681 34.9985 44.2425C30.0469 49.1861 25.0116 51.1357 24 51.2524C22.9895 51.1357 17.953 49.1861 13.0015 44.2425C8.8203 40.067 3.83593 32.7932 3.83593 21.8468V11.707C10.9035 9.62378 17.5294 6.79514 24.0011 3.09764C30.3313 6.70225 37.2403 9.65096 44.1652 11.7048L44.1641 21.8468Z" fill="#1AB9CA"/>
    <path d="M17.0106 25.857C16.3593 25.2056 15.3035 25.2056 14.6521 25.857C14.0007 26.5083 14.0007 27.5641 14.6521 28.2155L20.0737 33.6371C20.3989 33.9622 20.8259 34.1254 21.253 34.1254C21.6801 34.1254 22.106 33.9622 22.4323 33.6371L33.3492 22.7202C34.0006 22.0688 34.0006 21.0131 33.3492 20.3617C32.6978 19.7103 31.6432 19.7103 30.9907 20.3617L21.253 30.0993L17.0106 25.857Z" fill="#1AB9CA"/>
</svg>
