<svg width="132" height="284" viewBox="0 0 132 284" fill="none" xmlns="http://www.w3.org/2000/svg">
    <g clip-path="url(#clip0_70_174)">
        <path d="M53.7015 40.9832C53.0372 40.9832 52.3831 40.956 51.753 40.9253L51.2531 40.9049C50.8456 40.8879 50.3627 40.8981 49.8525 40.9083C48.1129 40.9457 45.9487 40.9934 44.3974 40.0612C42.4832 38.9148 40.6272 36.149 40.7299 35.5095C40.7607 35.3053 40.9285 35.1216 41.1306 35.0774C41.4216 35.0094 42.0894 34.2065 42.627 33.5568C43.6612 32.3082 44.9522 30.757 46.4452 30.3385C46.702 30.2671 47.0376 30.3453 47.7739 30.529C48.3594 30.6753 49.1642 30.876 49.5306 30.8318C50.0169 30.7706 50.4928 30.6141 50.9517 30.461C51.9859 30.1174 53.157 29.7296 54.4549 30.5222C55.1843 30.9679 55.8452 31.4884 56.4855 31.9919C57.4855 32.7777 58.4272 33.5193 59.5812 33.9752C60.1668 34.2065 61.4509 34.6862 62.1324 34.8563C62.331 34.9073 62.5399 34.9413 62.7522 34.9617C62.783 34.9652 62.9884 34.972 63.0501 34.972V35.0536C63.1802 35.0264 63.3138 35.0502 63.4233 35.1216C63.5398 35.1931 63.622 35.3087 63.6494 35.4414C63.6973 35.6591 63.6014 35.8905 63.4096 35.9993C62.8001 36.3497 62.2214 36.9417 61.6084 37.5642C60.7797 38.4079 59.838 39.3673 58.5539 40.0238C57.0266 40.8097 55.3349 40.9832 53.7015 40.9832ZM50.7668 39.8843C50.9517 39.8843 51.1264 39.8877 51.2942 39.8945L51.7975 39.915C53.8487 40.0034 56.1739 40.1055 58.0881 39.1257C59.225 38.544 60.0674 37.6867 60.879 36.86C61.0674 36.6661 61.2557 36.4756 61.444 36.2953C60.0058 36.3667 58.0334 36.2273 55.4103 35.5979C53.9652 35.2509 52.4687 35.3836 51.0716 35.5809C49.4587 35.8088 48.6642 35.6898 47.8937 35.5741C47.0205 35.4414 46.1952 35.319 44.0242 35.717C43.8256 35.7544 43.5756 35.8088 43.305 35.8701C42.8941 35.9619 42.4524 36.0606 42.0483 36.1252C42.5585 36.9655 43.6441 38.4283 44.9316 39.2006C46.2295 39.9796 48.2293 39.9354 49.8354 39.9014C50.1573 39.8911 50.4723 39.8843 50.7668 39.8843ZM53.4515 34.363C54.1775 34.363 54.9103 34.431 55.6466 34.608C57.4786 35.0502 58.9648 35.2339 60.1359 35.2781C59.7764 35.1489 59.4442 35.0196 59.2045 34.9243C57.9101 34.414 56.8622 33.5908 55.852 32.7947C55.2356 32.3082 54.5987 31.8082 53.9207 31.3931C53.0303 30.8488 52.2564 31.104 51.277 31.4305C50.7702 31.5972 50.2463 31.7707 49.6607 31.8456C49.1025 31.917 48.2636 31.7061 47.5239 31.519C47.226 31.4442 46.8253 31.3421 46.6849 31.3319C45.5104 31.6857 44.3529 33.0839 43.4181 34.2099C43.1989 34.4753 42.9969 34.7168 42.8051 34.9379C42.8975 34.9175 42.99 34.8971 43.079 34.8767C43.3633 34.8121 43.6269 34.7542 43.8358 34.7168C46.1747 34.2882 47.1267 34.431 48.0444 34.5705C48.7704 34.6794 49.4587 34.7848 50.9243 34.5773C51.7393 34.4549 52.5886 34.363 53.4515 34.363Z" fill="#1AB9CA"/>
        <path d="M37.2678 146.92C37.2541 146.92 37.2404 146.92 37.2302 146.92C36.9494 146.899 36.7371 146.654 36.7576 146.375C38.2712 126.501 43.6612 101.939 44.9008 97.4555C46.0514 93.2983 47.8869 91.4136 49.8319 89.4201C50.5921 88.6411 51.3763 87.8382 52.1365 86.872C55.1774 83.0177 57.1361 79.6804 59.0298 76.4519C60.3414 74.2169 61.6974 71.907 63.372 69.512C66.5258 65.0044 67.8613 62.9054 68.06 62.4462C68.4812 61.4732 70.4536 57.0167 71.6658 54.5605C72.0939 53.6964 72.9568 52.1111 73.8129 50.6143C74.3882 49.6073 74.7752 48.9507 75.0526 48.5255C73.9533 48.0832 72.224 47.6342 71.0323 48.1275C68.7037 49.0936 66.4813 52.0227 64.3308 54.8531C63.9199 55.394 63.5124 55.9315 63.1083 56.452C62.6494 57.0405 62.194 57.6427 61.7385 58.2482C58.8004 62.1502 55.7664 66.1849 50.3935 67.7124C50.2292 67.76 50.0545 67.7226 49.9244 67.6137C49.219 67.0218 48.469 65.9876 48.2636 65.5351C47.2157 63.2354 46.411 60.7996 45.6953 58.5101C45.209 56.9555 44.6029 55.2579 44.0173 53.6182L43.6372 52.55C43.2948 51.5872 42.3633 49.6855 41.5449 48.0084C41.0038 46.9062 40.4936 45.8618 40.1649 45.1201C39.6101 43.875 39.1889 42.8477 38.8157 41.9461C37.7849 39.4457 37.2644 38.187 35.8604 36.8705L35.7645 36.782C35.2817 36.3296 34.3845 35.4825 33.7989 35.377C33.0284 35.2375 32.2648 35.4314 31.645 35.9247C30.8163 36.5847 30.3334 37.6903 30.2855 39.0341C30.1759 41.9189 30.7855 43.7866 31.5525 46.1543C31.8128 46.9606 32.0833 47.7941 32.3504 48.7398C32.5524 49.461 34.3297 55.7852 34.2783 56.2002C34.2441 56.4792 33.9907 56.6765 33.7099 56.6459C33.4531 56.6153 33.2647 56.4043 33.2579 56.1526C33.1825 55.6423 31.8813 50.8524 31.3642 49.012C31.1039 48.0832 30.8368 47.26 30.5766 46.4639C29.8095 44.0996 29.1452 42.055 29.2616 38.9933C29.3232 37.3467 29.9431 35.9758 31.0046 35.1287C31.8573 34.4483 32.9154 34.1795 33.9804 34.3734C34.8605 34.5333 35.8262 35.4382 36.4631 36.0404L36.5556 36.1288C38.1239 37.5951 38.7027 39.0035 39.7574 41.5583C40.1272 42.4564 40.5484 43.477 41.0963 44.7085C41.4182 45.4331 41.925 46.4673 42.4626 47.5627C43.3359 49.3453 44.2399 51.1892 44.6029 52.2098L44.983 53.2746C45.572 54.9245 46.1849 56.6323 46.6746 58.2074C47.3801 60.4663 48.1711 62.8646 49.1984 65.1167C49.3251 65.3923 49.8525 66.1441 50.3867 66.6612C55.263 65.1677 58.1395 61.3474 60.9235 57.6461C61.3824 57.0371 61.8378 56.4282 62.3036 55.8362C62.7076 55.3191 63.1117 54.785 63.5192 54.2509C65.7519 51.3117 68.06 48.2703 70.6419 47.1987C72.8164 46.2972 75.758 47.7192 76.0833 47.8825C76.3196 48.0016 76.4257 48.2805 76.3264 48.5255C76.2888 48.6207 76.2237 48.699 76.1449 48.7534C75.7135 49.2909 73.426 53.3154 72.5836 55.0198C71.3782 57.4589 69.4194 61.8951 68.9982 62.8612C68.6044 63.7695 65.8307 67.7872 64.2109 70.1039C62.5604 72.4649 61.2728 74.6557 59.9133 76.9758C58.0025 80.2315 56.0266 83.5994 52.9447 87.5116C52.1502 88.5186 51.3455 89.3452 50.5682 90.1413C48.6368 92.1212 46.9691 93.8324 45.887 97.7378C44.6508 102.201 39.2848 126.661 37.7746 146.464C37.7575 146.715 37.5349 146.92 37.2678 146.92Z" fill="#1AB9CA"/>
        <path d="M12.9717 222.799C10.8212 222.799 9.27337 222.486 8.28372 222.289C8.00292 222.231 7.76664 222.184 7.56802 222.153C4.23609 221.643 1.95545 211.815 1.13017 207.613C-2.33874 189.93 3.15056 161.857 4.69838 155.856C5.70515 151.944 7.29749 145.521 8.70149 139.854C9.62608 136.115 10.5027 132.59 11.1362 130.063L11.2218 129.723C16.2968 109.573 18.7589 98.2344 18.5363 96.0231C18.1871 92.5565 16.4612 86.4603 14.9168 83.2352C14.7969 82.9869 14.5709 82.5481 14.2867 81.9969C12.7115 78.9386 11.1739 75.8633 11.1294 74.7712L11.126 74.676C10.9239 69.7262 10.9102 64.9261 12.1704 63.3544C13.4066 61.8133 15.9783 58.6019 18.848 59.1972C19.1253 59.255 19.3 59.5238 19.2452 59.7994C19.187 60.0749 18.9165 60.2518 18.6391 60.194C16.3893 59.7279 14.0812 62.6059 12.9717 63.9905C11.7766 65.4806 12.0471 72.1347 12.1499 74.6386L12.1533 74.7338C12.1909 75.6932 14.3004 79.7891 15.201 81.5377C15.4921 82.099 15.7181 82.5447 15.8413 82.8032C17.4268 86.1133 19.1938 92.3694 19.5534 95.9279C19.8684 99.0712 15.516 116.863 12.2149 129.974L12.1293 130.315C11.4924 132.842 10.6192 136.367 9.69457 140.102C8.29057 145.77 6.69823 152.196 5.68803 156.111C4.1539 162.068 -1.30115 189.92 2.13351 207.419C3.39026 213.812 5.67433 220.833 7.72212 221.15C7.93443 221.184 8.18784 221.235 8.48576 221.292C10.9376 221.786 16.0365 222.813 25.0016 218.979C36.2507 214.169 49.5305 203.402 64.4677 186.981C66.0635 185.225 68.327 182.381 70.5186 179.632C72.6383 176.969 74.645 174.451 76.138 172.781C84.9866 162.885 86.8221 161.014 97.9582 150.512C98.2561 150.229 98.5917 149.906 98.9582 149.556C102.571 146.076 109.296 139.602 114.563 140.531C114.84 140.578 115.025 140.844 114.977 141.119C114.93 141.395 114.662 141.578 114.385 141.531C109.635 140.69 103.153 146.933 99.6704 150.287C99.3006 150.641 98.965 150.968 98.6637 151.25C87.5549 161.725 85.7229 163.592 76.9051 173.458C75.4326 175.108 73.3437 177.727 71.3233 180.265C69.1214 183.027 66.8476 185.889 65.2279 187.664C50.188 204.194 36.7918 215.046 25.4057 219.915C20.0431 222.208 15.9338 222.799 12.9717 222.799Z" fill="#1AB9CA"/>
        <path d="M17.8343 62.1943C17.7008 62.1943 17.5706 62.1433 17.4679 62.0412C17.2693 61.8405 17.2727 61.5207 17.4747 61.3234C18.0843 60.7315 18.5089 58.527 18.7383 57.3466C18.8034 56.9996 18.8616 56.707 18.9096 56.5097C19.6458 53.4548 22.2518 51.2571 24.9707 51.3932C25.2515 51.4068 25.4707 51.6449 25.4536 51.9273C25.4399 52.2063 25.2002 52.4206 24.9159 52.407C22.6764 52.2947 20.5224 54.159 19.8992 56.7444C19.8547 56.9315 19.7999 57.2071 19.7383 57.5371C19.3787 59.4081 18.9609 61.2962 18.187 62.0514C18.0911 62.1467 17.961 62.1943 17.8343 62.1943Z" fill="#1AB9CA"/>
        <path d="M24.6762 56.4247C24.6523 56.4247 24.6249 56.4213 24.5975 56.4179C24.3201 56.377 24.1249 56.1185 24.1694 55.8395C24.3509 54.642 24.392 53.3085 24.4262 52.1314C24.4776 50.4236 24.5187 49.4303 24.8303 48.9166C25.0221 48.6002 25.2002 48.2906 25.3714 47.9845C25.998 46.889 26.587 45.8549 27.6041 44.9704C28.3438 44.3274 29.5389 44.5145 30.6963 44.6982L30.7956 44.7152C31.073 44.7594 31.2648 45.018 31.2202 45.2969C31.1757 45.5725 30.9155 45.763 30.6347 45.7188L30.5319 45.7018C29.693 45.5691 28.6519 45.4058 28.2718 45.7358C27.3883 46.5046 26.8644 47.4231 26.2549 48.4845C26.0768 48.7941 25.8953 49.1139 25.7001 49.4371C25.5118 49.7467 25.4741 51.0258 25.4399 52.1586C25.4056 53.3629 25.3645 54.7305 25.1728 55.9892C25.1419 56.2444 24.9262 56.4247 24.6762 56.4247Z" fill="#1AB9CA"/>
        <path d="M51.5953 57.7038C50.7974 57.7038 49.9619 57.6629 49.0784 57.5711C48.3695 57.4996 46.9107 57.122 45.1335 56.2988C44.8766 56.1797 44.7671 55.8769 44.8869 55.6252C45.0068 55.37 45.3115 55.2612 45.5649 55.3802C47.1196 56.1014 48.4996 56.4927 49.1811 56.5641C54.0095 57.054 57.1976 56.064 61.235 54.8053C62.0568 54.5502 62.9061 54.2848 63.8101 54.0195C64.0806 53.9412 64.3649 54.0943 64.4436 54.3631C64.5224 54.6318 64.3683 54.9142 64.0978 54.9924C63.204 55.2544 62.3582 55.5163 61.5397 55.7715C58.2557 56.7954 55.3416 57.7038 51.5953 57.7038Z" fill="#1AB9CA"/>
        <path d="M73.9225 51.9612C73.7205 51.9612 73.5287 51.8387 73.4465 51.6414C73.3438 51.3795 73.4705 51.0869 73.7342 50.9815C80.6617 48.2463 88.6611 43.9054 90.9075 40.381C92.3149 38.1732 93.1778 34.9686 94.01 31.8694C94.7154 29.2499 95.3797 26.7767 96.3249 25.2254C96.5269 24.892 96.8967 24.9159 97.3659 24.9465C98.4685 25.0179 100.753 25.1676 102.126 22.2351C103.687 18.8944 107.238 8.63081 106.999 4.93631C106.858 2.77608 106.04 1.45273 104.632 1.10914C102.814 0.663485 100.472 1.93921 99.5917 3.37482C99.4445 3.61296 99.1294 3.6912 98.8897 3.54492C98.65 3.39864 98.5713 3.08566 98.7185 2.84753C99.8075 1.07172 102.54 -0.448946 104.876 0.12598C105.951 0.387929 107.79 1.35408 108.019 4.87167C108.276 8.7907 104.698 19.153 103.054 22.6638C101.386 26.229 98.4172 26.0351 97.3008 25.9602C97.2323 25.9568 97.1536 25.95 97.0885 25.9466C96.2769 27.3925 95.6571 29.6956 95.003 32.1313C94.1504 35.3019 93.2703 38.5848 91.7773 40.9219C89.4076 44.6403 81.1993 49.1274 74.1177 51.9238C74.0492 51.9476 73.9876 51.9612 73.9225 51.9612Z" fill="#1AB9CA"/>
        <path d="M129.966 284C129.939 284 129.915 283.997 129.901 283.997C129.47 283.942 129.36 283.534 129.223 283.017C129.182 282.857 129.124 282.643 129.083 282.561C128.75 281.901 128.353 281.122 127.929 280.36C127.548 279.676 127.172 278.993 126.795 278.305C125.939 276.751 125.056 275.142 124.148 273.584C120.258 266.895 116.912 260.071 113.923 252.72C113.087 250.665 112.166 248.603 111.276 246.613C109.656 242.993 107.985 239.251 106.749 235.38C102.256 221.303 107.43 210.124 112.913 198.289C114.567 194.72 116.272 191.029 117.724 187.219C133.921 144.667 135.24 112.788 121.761 89.7568C118.607 84.3716 113.7 80.507 108.954 76.7717C102.876 71.9886 96.592 67.0421 94.0545 58.8945C91.702 51.3422 93.3388 44.1778 94.9174 37.248C95.8009 33.3766 96.7153 29.3692 96.8659 25.4365C96.8762 25.1576 97.1125 24.9398 97.3967 24.9501C97.6775 24.9603 97.8967 25.1984 97.8864 25.4774C97.7289 29.5052 96.8043 33.5535 95.9139 37.4726C94.3627 44.273 92.7601 51.3014 95.0305 58.5952C97.4755 66.4434 103.359 71.0734 109.588 75.9756C114.409 79.7688 119.395 83.6912 122.645 89.2466C130.435 102.555 133.384 119.105 131.408 138.432C129.932 152.873 125.768 168.95 118.679 187.576C117.217 191.42 115.501 195.125 113.841 198.71C108.444 210.362 103.348 221.367 107.725 235.07C108.944 238.884 110.605 242.602 112.211 246.198C113.104 248.198 114.029 250.267 114.871 252.339C117.844 259.646 121.169 266.429 125.035 273.077C125.946 274.645 126.836 276.261 127.692 277.819C128.069 278.503 128.446 279.187 128.822 279.867C129.254 280.646 129.658 281.435 129.997 282.105C130.083 282.279 130.144 282.51 130.209 282.755C130.226 282.816 130.247 282.895 130.267 282.966C130.278 282.97 130.288 282.976 130.298 282.983C130.545 283.119 130.63 283.429 130.493 283.674C130.333 283.956 130.093 284 129.966 284Z" fill="#1AB9CA"/>
        <path d="M24.512 181.82C24.3956 181.82 24.2757 181.779 24.1798 181.697C23.9641 181.514 23.9401 181.194 24.125 180.983C25.5427 179.336 27.2447 172.737 28.748 166.913C29.9944 162.079 31.1724 157.513 32.2819 155.04C36.0351 146.681 41.086 139.024 45.9726 131.618C47.5958 129.155 49.2738 126.61 50.8901 124.069C52.6331 121.323 54.3658 118.398 56.2047 115.299C61.3824 106.573 67.2484 96.6798 74.4944 89.1887C82.8191 80.5818 91.7362 76.3975 101.759 76.3975C101.794 76.3975 101.828 76.3975 101.866 76.3975C104.961 76.4077 111.166 77.2207 114.81 80.2212C115.025 80.4015 115.056 80.7213 114.878 80.9356C114.697 81.15 114.375 81.1806 114.159 81.0037C110.742 78.1903 104.821 77.4248 101.866 77.4146C101.831 77.4146 101.797 77.4146 101.763 77.4146C79.8673 77.4146 67.7689 97.8126 57.0916 115.816C55.2493 118.922 53.5097 121.854 51.7599 124.61C50.1401 127.161 48.4588 129.709 46.8322 132.176C41.9695 139.548 36.9425 147.168 33.2202 155.452C32.145 157.846 30.9224 162.582 29.7445 167.161C28.0665 173.669 26.481 179.816 24.9092 181.64C24.7996 181.759 24.6558 181.82 24.512 181.82Z" fill="#1AB9CA"/>
        <path d="M76.7474 78.02C76.5522 78.02 76.3947 77.9146 76.3125 77.7853C76.0831 77.4315 76.3605 77.1389 76.5249 76.9654C76.5591 76.9314 76.5899 76.8974 76.6105 76.8736C76.8262 76.598 77.0591 76.3395 77.2851 76.0843L77.3707 75.9857C77.9323 75.3495 78.535 74.7406 79.1171 74.1486C79.3089 73.9547 79.5007 73.7608 79.689 73.5635C82.0861 71.1073 84.2092 68.862 85.9659 66.28C89.2602 61.4288 91.0854 55.7816 92.8455 50.3215L92.9003 50.1582C92.9859 49.8929 93.2735 49.7432 93.5441 49.8316C93.8112 49.9167 93.9618 50.2025 93.8728 50.4712L93.8214 50.6345C92.0373 56.166 90.1916 61.8813 86.8151 66.8515C85.0139 69.5016 82.8566 71.7809 80.4252 74.2745C80.2335 74.4718 80.0417 74.6657 79.8465 74.863C79.2746 75.4448 78.6788 76.0469 78.1343 76.6593L78.0487 76.7579C77.833 76.9995 77.6104 77.2512 77.4118 77.5029C77.3775 77.5438 77.3227 77.605 77.2645 77.6662C77.2577 77.673 77.2543 77.6764 77.2474 77.6832C77.196 77.8227 77.0865 77.9384 76.9358 77.9928C76.8741 78.0098 76.8091 78.02 76.7474 78.02Z" fill="#1AB9CA"/>
        <path d="M70.6864 265.483C66.6559 265.483 65.8238 265.038 62.9028 263.476C62.1323 263.065 61.2591 262.599 60.1324 262.034C44.8494 254.38 31.3093 243.558 18.7487 233.128C16.4132 231.189 14.7695 229.083 13.0299 226.855C12.5437 226.229 12.0369 225.586 11.5095 224.929C10.8144 224.068 10.0884 223.252 9.2323 222.367C9.03711 222.167 9.04396 221.843 9.246 221.65C9.44804 221.456 9.77335 221.462 9.96854 221.663C10.8486 222.572 11.5883 223.408 12.304 224.293C12.8382 224.956 13.345 225.603 13.8347 226.232C15.54 228.416 17.1529 230.481 19.4027 232.349C31.9189 242.738 45.4076 253.519 60.5913 261.126C61.7316 261.697 62.6494 262.187 63.3856 262.582C67.0703 264.551 67.2141 264.626 75.5593 264.357C77.5215 264.293 82.7711 263.082 83.7436 262.49C83.4491 260.959 82.1444 260.054 79.5487 259.574C79.2714 259.523 79.0864 259.258 79.1412 258.982C79.1926 258.707 79.4597 258.527 79.7371 258.578C81.7335 258.945 84.4285 259.761 84.7915 262.565C84.8052 262.667 84.8018 262.871 84.6271 263.075C83.8224 264.014 77.316 265.313 75.5936 265.371C73.5355 265.439 71.9534 265.483 70.6864 265.483Z" fill="#1AB9CA"/>
        <path d="M74.1109 260.755C73.7548 260.755 73.4431 260.721 73.1863 260.639C72.9706 260.571 72.6727 260.486 72.3097 260.384C70.3235 259.816 66.6286 258.761 64.0329 257.132C63.7042 256.924 62.3926 256.342 60.5229 255.577C60.4305 255.539 60.1497 255.424 60.1462 255.09L60.6565 255.084L60.8585 254.618L60.9167 254.641C62.3139 255.216 64.0843 255.965 64.5808 256.278C67.0567 257.829 70.6591 258.86 72.5973 259.414C72.9706 259.52 73.2788 259.608 73.4979 259.68C74.6109 260.03 78.025 259.03 79.4838 258.605L79.7098 258.54C84.0485 257.274 86.4935 256.618 89.8802 255.71C90.072 255.658 90.2946 255.601 90.5411 255.539C92.8423 254.954 97.6262 253.736 97.2769 251.335C97.2255 251.059 97.407 250.784 97.6844 250.733C97.9618 250.681 98.2255 250.855 98.2803 251.131L98.2905 251.185C98.7734 254.492 93.5854 255.812 90.798 256.523C90.5548 256.584 90.3357 256.638 90.1473 256.689C86.7709 257.598 84.3293 258.251 80.0009 259.513L79.7748 259.578C77.7579 260.159 75.5697 260.755 74.1109 260.755Z" fill="#1AB9CA"/>
        <path d="M79.7988 254.393C79.5694 254.393 79.3673 254.386 79.1892 254.373C77.9188 254.281 76.4086 253.971 75.3334 253.59C74.4567 253.277 71.1453 252.264 67.947 251.284C65.4883 250.532 63.1665 249.821 62.1187 249.477C61.8515 249.389 61.7043 249.103 61.7933 248.838C61.8824 248.572 62.17 248.426 62.4371 248.515C63.4747 248.855 65.793 249.562 68.2483 250.314C71.4604 251.297 74.7821 252.315 75.6792 252.638C76.6586 252.988 78.0969 253.281 79.2646 253.366C80.7782 253.475 84.6238 253.039 91.6506 252.134C95.462 251.644 98.5405 251.052 100.585 248.348C100.753 248.123 101.075 248.079 101.301 248.246C101.527 248.412 101.571 248.732 101.403 248.957C99.1226 251.974 95.6982 252.638 91.7842 253.141C85.3326 253.968 81.6651 254.393 79.7988 254.393Z" fill="#1AB9CA"/>
        <path d="M98.6328 249.199C96.8898 249.199 95.0989 249.151 93.8387 249.113L93.1572 249.096C89.6096 249.005 79.737 248.072 78.2303 247.78C76.6277 247.47 73.5903 245.997 70.07 244.293C64.7005 241.69 58.0161 238.452 53.9377 238.149C53.6569 238.129 53.4446 237.884 53.4651 237.605C53.4857 237.326 53.7322 237.118 54.013 237.135C58.2901 237.452 65.0704 240.738 70.5186 243.381C73.9738 245.055 76.9564 246.501 78.4255 246.783C79.9117 247.069 89.6678 247.991 93.1846 248.079L93.8695 248.096C96.3351 248.164 100.876 248.287 102.92 247.987C103.009 247.484 102.533 245.688 100.8 244.565C98.7082 243.208 95.1913 242.646 92.8662 242.276C92.3867 242.201 91.9587 242.133 91.6094 242.065C91.1985 241.99 90.6232 241.888 89.952 241.769C86.0961 241.088 82.2505 240.384 81.2506 239.928C81.0486 239.836 80.3397 239.347 78.518 238.074C77.155 237.125 75.6106 236.047 74.8436 235.56C73.3916 234.642 72.015 233.727 70.6829 232.842C64.4882 228.732 59.1393 225.188 51.0372 224.102C50.7564 224.065 50.5612 223.81 50.5989 223.531C50.6366 223.252 50.8934 223.058 51.1742 223.095C59.5126 224.211 64.9505 227.821 71.2514 231.998C72.5801 232.879 73.9532 233.791 75.3949 234.703C76.1825 235.2 77.7338 236.285 79.1069 237.241C80.2267 238.023 81.4937 238.908 81.6855 239.006C82.6443 239.442 87.5173 240.306 90.1335 240.769C90.8081 240.888 91.3868 240.99 91.7977 241.068C92.1402 241.133 92.558 241.197 93.0271 241.272C95.4379 241.656 99.0814 242.235 101.359 243.715C103.369 245.018 104.129 247.174 103.91 248.229C103.787 248.814 103.396 248.94 103.235 248.967C102.181 249.144 100.434 249.199 98.6328 249.199Z" fill="#1AB9CA"/>
        <path d="M72.6828 227.494C71.2 227.494 69.7001 227.392 68.2722 227.297C67.1935 227.225 66.1764 227.154 65.2313 227.133C64.7245 227.123 63.4986 227.205 61.7795 227.365C61.4987 227.388 61.2487 227.184 61.2248 226.905C61.1974 226.626 61.4063 226.378 61.6871 226.354C62.9301 226.239 64.5567 226.106 65.2553 226.119C66.221 226.14 67.2517 226.211 68.3407 226.283C72.0869 226.534 76.3332 226.824 79.2919 225.163C80.1548 224.68 81.6752 223.119 81.7814 222.258C81.8054 222.075 81.7437 222.02 81.7163 221.993C81.2609 221.568 80.4425 221.462 79.1994 221.306C78.6104 221.231 77.9427 221.146 77.1722 221.01C73.3574 220.329 67.8544 219.037 66.6422 218.713C65.0019 218.275 63.4814 217.839 62.009 217.417C55.643 215.59 50.6194 214.148 42.5481 214.447C40.586 214.519 38.0827 215.152 35.4357 215.822C34.1892 216.138 32.8982 216.465 31.6517 216.73C31.3744 216.788 31.1038 216.614 31.0456 216.342C30.9874 216.067 31.162 215.798 31.436 215.74C32.6654 215.475 33.9461 215.152 35.1857 214.839C37.8875 214.155 40.4421 213.512 42.5139 213.434C50.7461 213.128 55.8416 214.594 62.2966 216.444C63.7622 216.866 65.2793 217.302 66.9093 217.737C68.1112 218.057 73.5697 219.339 77.3571 220.013C78.1002 220.146 78.7542 220.227 79.333 220.302C80.7198 220.479 81.7198 220.605 82.4183 221.258C82.6306 221.455 82.8669 221.813 82.7984 222.384C82.6306 223.762 80.7267 225.531 79.7952 226.051C77.7543 227.194 75.2408 227.494 72.6828 227.494Z" fill="#1AB9CA"/>
    </g>
    <defs>
        <clipPath id="clip0_70_174">
            <rect width="132" height="284" fill="white"/>
        </clipPath>
    </defs>
</svg>
