<svg width="178" height="217" viewBox="0 0 178 217" fill="none" xmlns="http://www.w3.org/2000/svg">
    <path fill-rule="evenodd" clip-rule="evenodd" d="M27.7218 33.7012C18.513 36.806 4.20015 60.4532 0.935059 59.0538C5.62636 50.264 19.6062 33.7777 23.6821 30.7348C29.0793 26.6971 42.2591 25.9281 51.2508 25.7751C57.0606 19.6893 57.6542 7.71812 59.0298 4.45657C60.3836 13.25 58.7474 23.2023 56.438 27.8595C54.324 32.1087 38.6899 30.0023 27.7218 33.7012ZM100.944 35.2062C100.003 32.4694 95.905 12.3863 99.4018 1.84004C99.4923 1.85461 103.366 22.9326 104.759 30.6729C112.603 24.27 130.17 12.7981 135.618 0.371429C136.433 9.63132 128.212 20.8226 118.113 27.6518C113.885 30.5198 106.334 33.3113 100.944 35.2062ZM50.0164 88.2656C47.9495 102.835 55.0624 115.546 69.8676 117.765C90.2038 120.812 104.636 102.995 109.193 84.7053C110.822 108.673 88.6618 129.973 68.1083 125.338C47.5513 120.703 43.5876 98.4912 50.0164 88.2656ZM120.629 137.674C121.899 135.37 128.567 121.65 135.007 111.552C149.258 89.2095 150.731 69.4944 160.085 59.2506C172.334 47.6366 177.677 21.7701 177.797 6.72325C174.633 16.0925 166.275 42.9756 157.62 51.1714C154.155 54.4548 149.399 60.6026 147.915 65.3072C146.293 72.0089 140.19 88.9508 134.521 101.326C125.392 120.433 113.237 137.357 106.841 158.376C104.365 166.514 109.823 178.303 113.964 185.434C123.141 201.257 129.074 216.607 129.099 216.672C130.543 192.785 116.458 179.268 112.564 163.489C111.702 160.009 113.925 149.831 120.629 137.674ZM37.1877 49.0979L36.8764 51.6561C37.0248 51.6561 35.8846 65.8502 33.0285 71.1817C27.8449 80.8679 11.4145 84.2971 10.8136 87.5842C8.68512 89.6103 3.80921 106.392 8.36658 115.043C10.9729 119.988 16.8768 125.837 22.1943 127.918C19.5301 150.388 26.7409 151.722 25.9336 167.891C25.9083 168.336 27.0703 183.211 27.5336 196.177C30.0783 187.3 31.5263 177.071 31.3706 171.109C31.1969 164.52 30.52 162.742 29.5318 157.356C27.606 146.168 23.6097 142.043 27.2404 128.909C27.4286 128.224 27.6422 127.51 27.8739 126.77C28.6847 127.08 27.2621 126.449 27.9282 126.745C29.4702 120.947 6.24536 122.583 12.866 94.1182C13.2823 92.5767 13.8434 90.9842 14.5782 89.3516C19.4107 83.2075 30.3571 84.9567 38.556 70.7262C41.6473 65.3546 41.651 55.1072 37.1877 49.0979Z" fill="#1AB9CA"/>
</svg>
