<svg width="56" height="37" viewBox="0 0 56 37" fill="none" xmlns="http://www.w3.org/2000/svg">
    <path d="M14.3172 34.5481V32.3474C14.3172 31.5039 13.7913 30.9537 12.8899 30.9537C12.4391 30.9537 11.9508 31.1004 11.6128 31.5772C11.3499 31.1738 10.9742 30.9537 10.4108 30.9537C10.0352 30.9537 9.65959 31.0637 9.3591 31.4672V31.027H8.57031V34.5481H9.3591V32.6042C9.3591 31.9807 9.69715 31.6872 10.223 31.6872C10.7489 31.6872 11.0118 32.0173 11.0118 32.6042V34.5481H11.8006V32.6042C11.8006 31.9807 12.1762 31.6872 12.6645 31.6872C13.1904 31.6872 13.4533 32.0173 13.4533 32.6042V34.5481H14.3172ZM25.9988 31.027H24.7217V29.9634H23.9329V31.027H23.2192V31.7239H23.9329V33.3377C23.9329 34.1446 24.2709 34.6214 25.1724 34.6214C25.5105 34.6214 25.8861 34.5114 26.149 34.3647L25.9236 33.7045C25.6983 33.8512 25.4353 33.8879 25.2475 33.8879C24.8719 33.8879 24.7217 33.6678 24.7217 33.3011V31.7239H25.9988V31.027ZM32.6847 30.9537C32.2339 30.9537 31.9334 31.1738 31.7456 31.4672V31.027H30.9569V34.5481H31.7456V32.5675C31.7456 31.9807 32.0086 31.6506 32.4969 31.6506C32.6471 31.6506 32.8349 31.6872 32.9852 31.7239L33.2105 30.9904C33.0603 30.9537 32.8349 30.9537 32.6847 30.9537ZM22.5807 31.3205C22.2051 31.0637 21.6792 30.9537 21.1158 30.9537C20.2143 30.9537 19.6133 31.3938 19.6133 32.0907C19.6133 32.6775 20.0641 33.0076 20.8529 33.1177L21.2285 33.1543C21.6416 33.2277 21.867 33.3377 21.867 33.5211C21.867 33.7779 21.5665 33.9612 21.0407 33.9612C20.5148 33.9612 20.1016 33.7779 19.8387 33.5945L19.4631 34.1813C19.8763 34.4747 20.4397 34.6214 21.0031 34.6214C22.0548 34.6214 22.6558 34.1446 22.6558 33.4844C22.6558 32.8609 22.1675 32.5308 21.4163 32.4208L21.0407 32.3841C20.7026 32.3474 20.4397 32.2741 20.4397 32.054C20.4397 31.7973 20.7026 31.6506 21.1158 31.6506C21.5665 31.6506 22.0173 31.8339 22.2426 31.944L22.5807 31.3205ZM43.5399 30.9537C43.0892 30.9537 42.7887 31.1738 42.6009 31.4672V31.027H41.8121V34.5481H42.6009V32.5675C42.6009 31.9807 42.8638 31.6506 43.3521 31.6506C43.5023 31.6506 43.6901 31.6872 43.8404 31.7239L44.0657 30.9904C43.9155 30.9537 43.6901 30.9537 43.5399 30.9537ZM33.4735 32.7876C33.4735 33.8512 34.2247 34.6214 35.3891 34.6214C35.9149 34.6214 36.2906 34.5114 36.6662 34.218L36.2906 33.5945C35.9901 33.8145 35.6896 33.9246 35.3515 33.9246C34.713 33.9246 34.2622 33.4844 34.2622 32.7876C34.2622 32.1274 34.713 31.6872 35.3515 31.6506C35.6896 31.6506 35.9901 31.7606 36.2906 31.9807L36.6662 31.3571C36.2906 31.0637 35.9149 30.9537 35.3891 30.9537C34.2247 30.9537 33.4735 31.7239 33.4735 32.7876ZM40.7603 32.7876V31.027H39.9716V31.4672C39.7086 31.1371 39.333 30.9537 38.8447 30.9537C37.8306 30.9537 37.0418 31.7239 37.0418 32.7876C37.0418 33.8512 37.8306 34.6214 38.8447 34.6214C39.3706 34.6214 39.7462 34.438 39.9716 34.108V34.5481H40.7603V32.7876ZM37.8681 32.7876C37.8681 32.164 38.2813 31.6506 38.9574 31.6506C39.5959 31.6506 40.0467 32.1274 40.0467 32.7876C40.0467 33.4111 39.5959 33.9246 38.9574 33.9246C38.2813 33.8879 37.8681 33.4111 37.8681 32.7876ZM28.4402 30.9537C27.3885 30.9537 26.6373 31.6872 26.6373 32.7876C26.6373 33.8879 27.3885 34.6214 28.4778 34.6214C29.0037 34.6214 29.5295 34.4747 29.9427 34.1446L29.5671 33.5945C29.2666 33.8145 28.891 33.9612 28.5154 33.9612C28.0271 33.9612 27.5388 33.7412 27.4261 33.1177H30.0929V32.8242C30.1305 31.6872 29.4544 30.9537 28.4402 30.9537ZM28.4402 31.6139C28.9285 31.6139 29.2666 31.9073 29.3417 32.4575H27.4636C27.5388 31.9807 27.8768 31.6139 28.4402 31.6139ZM48.0097 32.7876V29.6333H47.2209V31.4672C46.958 31.1371 46.5823 30.9537 46.0941 30.9537C45.0799 30.9537 44.2911 31.7239 44.2911 32.7876C44.2911 33.8512 45.0799 34.6214 46.0941 34.6214C46.6199 34.6214 46.9955 34.438 47.2209 34.108V34.5481H48.0097V32.7876ZM45.1175 32.7876C45.1175 32.164 45.5306 31.6506 46.2067 31.6506C46.8453 31.6506 47.296 32.1274 47.296 32.7876C47.296 33.4111 46.8453 33.9246 46.2067 33.9246C45.5306 33.8879 45.1175 33.4111 45.1175 32.7876ZM18.7494 32.7876V31.027H17.9606V31.4672C17.6977 31.1371 17.3221 30.9537 16.8338 30.9537C15.8196 30.9537 15.0308 31.7239 15.0308 32.7876C15.0308 33.8512 15.8196 34.6214 16.8338 34.6214C17.3597 34.6214 17.7353 34.438 17.9606 34.108V34.5481H18.7494V32.7876ZM15.8196 32.7876C15.8196 32.164 16.2328 31.6506 16.9089 31.6506C17.5475 31.6506 17.9982 32.1274 17.9982 32.7876C17.9982 33.4111 17.5475 33.9246 16.9089 33.9246C16.2328 33.8879 15.8196 33.4111 15.8196 32.7876Z" fill="white"/>
    <path d="M34.1497 4.28906H22.3179V25.0486H34.1497V4.28906Z" fill="#FF5F00"/>
    <path d="M23.0693 14.6688C23.0693 10.4508 25.0976 6.70974 28.2152 4.28902C25.9239 2.5285 23.0317 1.46484 19.8766 1.46484C12.4019 1.46484 6.35449 7.36993 6.35449 14.6688C6.35449 21.9676 12.4019 27.8727 19.8766 27.8727C23.0317 27.8727 25.9239 26.809 28.2152 25.0485C25.0976 22.6645 23.0693 18.8867 23.0693 14.6688Z" fill="#EB001B"/>
    <path d="M50.1134 14.6688C50.1134 21.9676 44.066 27.8727 36.5913 27.8727C33.4361 27.8727 30.5439 26.809 28.2527 25.0485C31.4078 22.6278 33.3986 18.8867 33.3986 14.6688C33.3986 10.4508 31.3703 6.70974 28.2527 4.28902C30.5439 2.5285 33.4361 1.46484 36.5913 1.46484C44.066 1.46484 50.1134 7.40661 50.1134 14.6688Z" fill="#F79E1B"/>
</svg>
