<svg width="31" height="26" viewBox="0 0 31 26" fill="none" xmlns="http://www.w3.org/2000/svg">
    <g clip-path="url(#clip0_241_20)">
        <path d="M17.724 26C17.724 25.4044 17.724 24.7949 17.7103 24.1993C17.7103 24.0746 17.7791 24.0607 17.8618 24.033C18.7431 23.7006 19.5832 23.3127 20.382 22.8002C23.1776 21.0272 25.0643 18.5477 25.9595 15.334C26.2212 14.406 26.3038 13.464 26.2487 12.5083C26.2349 12.2312 26.1661 11.968 26.0146 11.7325C25.8769 11.5248 25.7116 11.4694 25.4775 11.5663C25.3811 11.6079 25.2847 11.6633 25.2021 11.7187C24.4171 12.2866 23.5219 12.5637 22.5579 12.6329C21.5663 12.7022 20.5885 12.6052 19.7072 12.0927C17.9582 11.1092 16.8013 9.64091 16.4846 7.61854C16.099 5.20831 16.9253 3.22749 18.7294 1.62067C19.6934 0.761849 20.8089 0.235477 22.0897 0.0692548C24.1141 -0.193931 25.9457 0.290885 27.5432 1.59296C29.2785 3.00586 30.2976 4.83431 30.7383 7.02291C31.0412 8.49121 31.0688 9.95951 30.9311 11.4417C30.6556 14.3229 29.5814 16.8716 27.86 19.171C26.2487 21.3181 24.1967 22.8833 21.8693 24.1438C20.5885 24.8364 19.2665 25.4044 17.9168 25.9169C17.8618 25.9307 17.8204 25.9584 17.7791 25.9862C17.7516 26 17.7378 26 17.724 26Z" fill="#ACACAC"/>
        <path d="M0 6.07987C0.0550866 5.76128 0.0826299 5.45654 0.151488 5.13794C0.399378 4.02979 0.936473 3.06016 1.70769 2.21519C2.72679 1.10704 3.93869 0.345188 5.42603 0.109706C7.49178 -0.236591 9.3785 0.220521 11.0311 1.5226C12.7939 2.90779 13.8405 4.75009 14.295 6.93869C14.598 8.40699 14.6393 9.88914 14.5016 11.3713C14.2399 14.3772 13.0968 17.0229 11.2652 19.3915C9.99822 21.0399 8.44203 22.342 6.69303 23.4224C5.04043 24.4475 3.29143 25.237 1.47357 25.9158C1.41848 25.9296 1.37717 25.9573 1.32208 25.985C1.30831 25.985 1.29454 25.985 1.29454 25.985C1.29454 25.4171 1.30831 24.8353 1.29454 24.2674C1.29454 24.115 1.33585 24.0596 1.47357 24.0042C4.57219 22.8407 6.95469 20.8321 8.53843 17.8817C9.40604 16.261 9.87428 14.5434 9.84674 12.6872C9.84674 12.3271 9.79165 11.9808 9.58507 11.6899C9.46113 11.5237 9.30964 11.4544 9.11684 11.5375C8.96535 11.6068 8.81386 11.6899 8.67614 11.7869C7.51933 12.6041 6.19725 12.7703 4.82008 12.5903C3.71835 12.4517 2.80942 11.9115 2.01066 11.1497C1.08796 10.277 0.426921 9.25196 0.151488 7.99143C0.0826299 7.67284 0.041315 7.35425 0 7.03565C0 6.71706 0 6.39847 0 6.07987Z" fill="#ACACAC"/>
    </g>
    <defs>
        <clipPath id="clip0_241_20">
            <rect width="31" height="26" fill="white"/>
        </clipPath>
    </defs>
</svg>
