<svg width="31" height="26" viewBox="0 0 31 26" fill="none" xmlns="http://www.w3.org/2000/svg">
    <g clip-path="url(#clip0_241_15)">
        <path d="M13.276 -5.83853e-06C13.276 0.595627 13.276 1.20511 13.2897 1.80074C13.2897 1.92541 13.2209 1.93926 13.1382 1.96696C12.2569 2.29941 11.4168 2.68726 10.618 3.19978C7.82239 4.97282 5.93567 7.45231 5.04051 10.666C4.77885 11.594 4.69622 12.536 4.7513 13.4917C4.76507 13.7688 4.83393 14.032 4.98542 14.2674C5.12314 14.4752 5.2884 14.5306 5.52252 14.4337C5.61892 14.3921 5.71532 14.3367 5.79795 14.2813C6.58294 13.7134 7.47809 13.4363 8.44211 13.3671C9.43367 13.2978 10.4115 13.3948 11.2928 13.9073C13.0418 14.8908 14.1987 16.3591 14.5154 18.3815C14.901 20.7917 14.0747 22.7725 12.2706 24.3793C11.3066 25.2381 10.1911 25.7645 8.91035 25.9307C6.88591 26.1939 5.05428 25.7091 3.45677 24.407C1.72154 22.9941 0.702434 21.1657 0.261741 18.9771C-0.0412352 17.5088 -0.06878 16.0405 0.0689373 14.5583C0.344371 11.6771 1.41856 9.12839 3.14002 6.82898C4.7513 4.68194 6.80328 3.11667 9.13069 1.85615C10.4115 1.16355 11.7335 0.595625 13.0832 0.083105C13.1382 0.0692538 13.1796 0.0415496 13.2209 0.0138453C13.2484 -5.84094e-06 13.2622 -5.83974e-06 13.276 -5.83853e-06Z" fill="#ACACAC"/>
        <path d="M31 19.9201C30.9449 20.2387 30.9174 20.5435 30.8485 20.8621C30.6006 21.9702 30.0635 22.9398 29.2923 23.7848C28.2732 24.893 27.0613 25.6548 25.574 25.8903C23.5082 26.2366 21.6215 25.7795 19.9689 24.4774C18.2061 23.0922 17.1595 21.2499 16.705 19.0613C16.402 17.593 16.3607 16.1109 16.4984 14.6287C16.7601 11.6228 17.9032 8.97713 19.7348 6.60846C21.0018 4.96008 22.558 3.658 24.307 2.57756C25.9596 1.55252 27.7086 0.762958 29.5264 0.084215C29.5815 0.0703639 29.6228 0.0426596 29.6779 0.0149554C29.6917 0.0149554 29.7055 0.0149554 29.7055 0.0149554C29.7055 0.582884 29.6917 1.16467 29.7055 1.73259C29.7055 1.88496 29.6642 1.94037 29.5264 1.99578C26.4278 3.15934 24.0453 5.16786 22.4616 8.11831C21.594 9.73898 21.1257 11.4566 21.1533 13.3128C21.1533 13.6729 21.2084 14.0192 21.4149 14.3101C21.5389 14.4763 21.6904 14.5456 21.8832 14.4625C22.0347 14.3932 22.1861 14.3101 22.3239 14.2131C23.4807 13.3959 24.8028 13.2297 26.1799 13.4097C27.2817 13.5483 28.1906 14.0885 28.9893 14.8503C29.912 15.723 30.5731 16.748 30.8485 18.0086C30.9174 18.3272 30.9587 18.6458 31 18.9643C31 19.2829 31 19.6015 31 19.9201Z" fill="#ACACAC"/>
    </g>
    <defs>
        <clipPath id="clip0_241_15">
            <rect width="31" height="26" fill="white" transform="translate(31 26) rotate(-180)"/>
        </clipPath>
    </defs>
</svg>
