<svg width="112" height="149" viewBox="0 0 112 149" fill="none" xmlns="http://www.w3.org/2000/svg">
    <path d="M47.1628 43.8051C47.1086 43.7237 47.0544 43.6447 46.9978 43.5633C46.7342 43.699 46.4362 43.7903 46.2146 43.9754C43.0228 46.68 39.7743 49.3279 36.6687 52.1262C28.4848 59.5023 20.7565 67.3126 14.2276 76.2408C9.42513 82.8049 5.1891 89.6701 2.51695 97.4237C0.38662 103.6 -0.598504 109.859 0.38662 116.393C1.15748 121.511 2.96026 126.187 6.03384 130.311C12.2278 138.627 20.7516 143.669 30.263 147.257C31.1397 147.587 32.0559 147.812 32.9548 148.086C32.9524 147.652 32.8563 147.405 32.6814 147.321C31.6569 146.827 30.6127 146.381 29.5808 145.9C23.4213 143.027 17.6805 139.518 12.8312 134.686C4.45764 126.348 1.06635 116.378 3.48483 104.716C4.87632 98.0085 7.6987 91.8072 11.1713 85.9167C14.3138 80.584 17.9711 75.6263 21.85 70.8044C28.5759 62.4438 36.0112 54.7667 43.7148 47.3265C44.8945 46.1889 46.0151 44.9822 47.1628 43.8051ZM100.852 63.4432C100.938 63.5148 101.022 63.5863 101.108 63.6579C101.305 63.4309 101.51 63.2088 101.697 62.9743C103.069 61.2568 104.504 59.5837 105.795 57.8069C108.933 53.486 111.023 48.7085 111.602 43.3584C112.329 36.6265 110.413 30.5855 106.578 25.1072C101.712 18.1556 95.1186 13.1585 87.9149 8.92637C81.9106 5.39753 75.5811 2.53991 68.9759 0.311561C66.9194 -0.381868 66.3899 0.0499826 66.1781 2.19196C65.7545 6.47345 65.3482 10.7747 64.5625 14.9994C63.9394 18.3555 62.809 21.6228 61.814 24.8999C60.6245 28.8137 58.738 32.3845 56.2678 35.6468C56.1964 35.7406 56.3269 35.9898 56.3885 36.286C56.6766 36.0343 56.8638 35.8911 57.0312 35.7258C59.3808 33.3963 61.0185 30.5609 62.4125 27.6243C65.3383 21.455 67.0106 14.8908 68.0942 8.16878C68.3528 6.57216 68.5597 4.96815 68.8158 3.20126C70.2245 3.75156 71.4707 4.13159 72.6208 4.70657C77.773 7.2878 83.0213 9.7111 88.0011 12.5959C95.0595 16.6824 101.322 21.7832 105.748 28.8088C109.447 34.6819 110.728 41.0363 108.95 47.8225C107.713 52.5458 105.514 56.8519 102.684 60.8299C102.066 61.6911 101.463 62.5696 100.852 63.4432ZM82.3883 93.0805C82.376 93.194 82.3637 93.3075 82.3514 93.4211C82.578 93.5741 82.7849 93.7665 83.0311 93.8702C84.8979 94.6598 86.7968 95.3829 88.6414 96.2219C90.5304 97.0807 92.2938 98.1369 93.6212 99.8174C94.0473 100.358 94.0694 100.75 93.6015 101.182C92.6533 102.058 91.6608 102.885 90.7373 103.783C89.9836 104.516 89.0675 105.212 88.639 106.12C87.7351 108.035 88.0035 110.083 88.8384 111.963C90.4245 115.539 91.8603 119.117 91.1264 123.16C91.119 123.199 91.2372 123.261 91.4342 123.429C91.6485 123.098 91.912 122.812 92.045 122.474C93.1508 119.648 93.0425 116.778 92.2962 113.898C91.9293 112.479 91.4515 111.09 91.1289 109.661C90.8801 108.551 90.8653 107.265 91.9539 106.668C93.8084 105.651 95.0226 104.054 96.3278 102.512C97.1406 101.555 97.5395 100.563 96.6037 99.4546C95.9042 98.6255 95.3008 97.6729 94.4635 97.0165C93.3725 96.1602 92.0943 95.5408 90.9589 94.8548C92.6656 94.5685 94.4093 94.3514 96.121 93.9738C98.4483 93.4581 99.3916 91.2396 98.2636 89.1544C97.2243 87.2295 96.4017 85.2455 96.5273 82.9875C96.584 81.9684 96.9805 81.2182 97.9435 80.7444C99.0763 80.1867 100.185 79.5722 101.258 78.9109C102.497 78.1483 103.751 77.3858 104.876 76.4703C105.603 75.8805 105.755 74.9749 105.472 74.1926C104.571 74.923 103.881 75.7571 102.997 76.1495C100.512 77.2526 97.941 78.1582 95.4191 79.1848C95.0349 79.3402 94.5645 79.666 94.4413 80.0189C93.8429 81.7216 93.2272 83.4712 93.7345 85.3023C94.264 87.2073 94.9339 89.0705 95.6062 91.1532C91.5007 92.9004 86.8288 92.3328 82.3883 93.0805ZM46.0447 89.643C53.1499 96.0492 60.9052 101.261 69.8403 104.62C66.7125 100.96 62.8533 98.1911 58.8119 95.7333C54.7113 93.2384 50.4087 91.0817 46.3279 88.8508C47.8006 88.2191 49.7068 87.881 51.3224 86.3091C48.1996 85.4775 45.4413 85.9291 42.6213 86.6842C42.9834 89.7762 43.1114 92.7844 44.6729 95.4347C44.8379 95.4396 45.0004 95.4421 45.1654 95.447C45.4536 93.542 45.7417 91.6394 46.0447 89.643ZM50.4949 71.2807C57.61 77.7362 65.3851 82.9036 74.1404 86.4917C74.2488 86.3239 74.3596 86.1536 74.4679 85.9858C67.4785 79.4315 59.4202 74.4788 50.559 70.7082C52.4012 69.8691 54.0094 69.1362 55.6201 68.4033C55.5807 68.2355 55.5412 68.0677 55.5018 67.9024C55.13 67.8234 54.7556 67.663 54.3911 67.6803C52.2731 67.7889 50.1575 67.9715 48.0395 68.0628C47.2391 68.0973 47.0569 68.4576 47.1578 69.1584C47.377 70.7008 47.4829 72.2678 47.8203 73.783C48.0715 74.9181 48.6084 75.9866 49.0173 77.0872C49.2192 77.0675 49.4236 77.0477 49.6256 77.028C49.9039 75.1723 50.1846 73.3215 50.4949 71.2807ZM49.3128 121.686C49.2808 121.854 49.2512 122.022 49.2192 122.19C50.0615 122.439 50.9087 122.681 51.7485 122.937C58.6641 125.033 65.6141 126.975 72.744 128.211C77.1918 128.983 81.6273 129.22 86.0234 128.006C86.9963 127.737 88.1242 127.485 88.8828 126.212C87.4987 126.496 86.4101 126.792 85.3018 126.933C80.588 127.54 75.985 126.545 71.4017 125.738C65.4861 124.694 59.6197 123.387 53.7212 122.239C52.2682 121.958 50.7831 121.866 49.3128 121.686ZM87.2376 25.507C87.1095 25.5563 86.979 25.6081 86.851 25.6575C86.8928 25.966 86.8805 26.2966 86.9864 26.5829C87.7597 28.6805 88.7498 30.7213 89.3014 32.8756C90.1314 36.1182 90.9885 39.4126 91.2298 42.7292C91.5254 46.8083 91.1584 50.9343 91.1707 55.0406C91.1732 55.7982 91.4219 56.7063 91.8825 57.2887C94.6285 60.7682 97.4681 64.1736 100.288 67.5939C100.512 67.8678 100.83 68.0628 101.106 68.2947C101.194 68.2158 101.283 68.1368 101.374 68.0578C101.207 67.7272 101.081 67.3619 100.862 67.0683C98.3006 63.6307 95.6998 60.2179 93.1754 56.7532C92.7986 56.235 92.5622 55.4799 92.5671 54.8383C92.5967 51.3538 92.8627 47.867 92.7863 44.385C92.6681 38.8326 91.1215 33.5937 88.831 28.5645C88.3533 27.5206 87.772 26.5237 87.2376 25.507Z" fill="white"/>
    <path d="M47.1621 43.8036C46.0144 44.9807 44.8938 46.185 43.7117 47.3275C36.0105 54.7677 28.5728 62.4448 21.8468 70.8054C17.9679 75.6273 14.3106 80.585 11.1681 85.9177C7.69553 91.8082 4.87315 98.0095 3.48166 104.717C1.06318 116.379 4.45447 126.346 12.828 134.687C17.6798 139.519 23.4181 143.028 29.5776 145.901C30.607 146.382 31.6537 146.828 32.6783 147.322C32.8531 147.406 32.9516 147.653 32.9516 148.087C32.0527 147.813 31.1366 147.588 30.2598 147.258C20.7509 143.67 12.2271 138.628 6.03067 130.312C2.95954 126.188 1.15431 121.512 0.383446 116.394C-0.601678 109.857 0.383446 103.599 2.51378 97.4247C5.18593 89.6711 9.42442 82.8084 14.2244 76.2418C20.7558 67.3136 28.4816 59.5033 36.6656 52.1273C39.7736 49.3264 43.0196 46.681 46.2114 43.9764C46.4306 43.7913 46.7311 43.7 46.9946 43.5643C47.0537 43.6432 47.1079 43.7247 47.1621 43.8036Z" fill="#1AB9CA"/>
    <path d="M100.851 63.4417C101.459 62.5682 102.063 61.6896 102.681 60.8235C105.508 56.8455 107.708 52.5418 108.946 47.8161C110.725 41.0299 109.446 34.6755 105.745 28.8024C101.319 21.7792 95.0562 16.676 87.9977 12.5895C83.0179 9.70469 77.7697 7.28139 72.6175 4.70016C71.4698 4.12518 70.2237 3.74515 68.8125 3.19485C68.5563 4.96174 68.3495 6.56575 68.0909 8.16237C67.0072 14.8844 65.335 21.4486 62.4092 27.6179C61.0152 30.5569 59.3774 33.3899 57.0279 35.7194C56.8605 35.8847 56.6733 36.0303 56.3851 36.2796C56.3236 35.9834 56.193 35.7342 56.2644 35.6404C58.7346 32.3781 60.6187 28.8073 61.8107 24.8935C62.8081 21.6164 63.9361 18.3491 64.5592 14.993C65.3448 10.7707 65.7487 6.46951 66.1748 2.18555C66.3866 0.0435746 66.9161 -0.388277 68.9725 0.305152C75.5803 2.5335 81.9097 5.39112 87.9115 8.91996C95.1153 13.1521 101.706 18.1492 106.575 25.1008C110.409 30.5791 112.328 36.6201 111.599 43.352C111.02 48.6996 108.929 53.4795 105.792 57.8005C104.501 59.5773 103.065 61.2504 101.693 62.9679C101.506 63.2024 101.302 63.4244 101.105 63.6515C101.021 63.5849 100.937 63.5133 100.851 63.4417Z" fill="#1AB9CA"/>
    <path d="M82.3875 93.079C86.828 92.3313 91.4999 92.8989 95.6079 91.1517C94.9355 89.069 94.2632 87.2034 93.7361 85.3008C93.2288 83.4697 93.8445 81.7201 94.443 80.0174C94.5686 79.662 95.0365 79.3388 95.4207 79.1833C97.9401 78.1567 100.514 77.2511 102.999 76.148C103.885 75.7556 104.575 74.9215 105.474 74.1911C105.757 74.9734 105.604 75.879 104.878 76.4688C103.752 77.3819 102.499 78.1469 101.26 78.9094C100.186 79.5707 99.078 80.1852 97.9451 80.7429C96.9821 81.2167 96.5856 81.9669 96.529 82.986C96.4034 85.244 97.2259 87.228 98.2652 89.1529C99.3932 91.2406 98.4499 93.459 96.1226 93.9723C94.4134 94.3499 92.6673 94.5695 90.9605 94.8533C92.0959 95.5393 93.3741 96.1587 94.4651 97.015C95.3 97.6714 95.9059 98.624 96.6053 99.4531C97.5412 100.561 97.1422 101.553 96.3295 102.511C95.0217 104.053 93.81 105.65 91.9555 106.666C90.8645 107.263 90.8793 108.549 91.1305 109.66C91.4531 111.086 91.9284 112.478 92.2978 113.897C93.0441 116.777 93.1549 119.649 92.0466 122.472C91.9137 122.81 91.6526 123.099 91.4359 123.427C91.2388 123.257 91.1206 123.197 91.128 123.158C91.8619 119.116 90.4261 115.538 88.8401 111.962C88.0052 110.082 87.7367 108.033 88.6406 106.118C89.0691 105.21 89.9853 104.514 90.7389 103.782C91.6624 102.883 92.655 102.057 93.6031 101.181C94.0711 100.749 94.0489 100.354 93.6228 99.8159C92.2929 98.1378 90.532 97.0816 88.643 96.2204C86.7984 95.3814 84.902 94.6583 83.0328 93.8687C82.7865 93.765 82.5771 93.5701 82.353 93.4196C82.3629 93.306 82.3752 93.1925 82.3875 93.079Z" fill="#1AB9CA"/>
    <path d="M46.0439 89.6415C45.741 91.6379 45.4553 93.5405 45.1671 95.4431C45.0021 95.4382 44.8396 95.4357 44.6746 95.4308C43.1131 92.7829 42.9851 89.7723 42.623 86.6803C45.4405 85.9251 48.1988 85.4736 51.3242 86.3052C49.7086 87.8771 47.8023 88.2152 46.3296 88.8469C50.4105 91.0777 54.713 93.237 58.8136 95.7294C62.855 98.1872 66.7143 100.956 69.842 104.616C60.9045 101.26 53.1466 96.0477 46.0439 89.6415Z" fill="#1AB9CA"/>
    <path d="M50.4943 71.2792C50.1864 73.3176 49.9057 75.1708 49.6249 77.0216C49.4205 77.0414 49.2185 77.0611 49.0166 77.0808C48.6078 75.9827 48.0709 74.9117 47.8197 73.7766C47.4847 72.2614 47.3764 70.6944 47.1572 69.152C47.0587 68.4537 47.2409 68.0934 48.0388 68.0564C50.1569 67.9626 52.2724 67.7825 54.3904 67.6739C54.7574 67.6541 55.1317 67.817 55.5012 67.896C55.5406 68.0638 55.58 68.2316 55.6194 68.3969C54.0112 69.1298 52.4005 69.8628 50.5583 70.7018C59.417 74.4725 67.4778 79.4252 74.4673 85.9794C74.3589 86.1472 74.2481 86.3175 74.1397 86.4853C65.3844 82.9022 57.6093 77.7348 50.4943 71.2792Z" fill="#1AB9CA"/>
    <path d="M49.3121 121.685C50.7824 121.865 52.2675 121.956 53.7181 122.238C59.6165 123.383 65.4829 124.693 71.3986 125.737C75.9843 126.546 80.5849 127.541 85.2987 126.931C86.407 126.788 87.498 126.492 88.8796 126.211C88.1235 127.484 86.9931 127.738 86.0203 128.005C81.6242 129.219 77.1887 128.982 72.7408 128.209C65.611 126.971 58.6585 125.031 51.7454 122.936C50.9031 122.682 50.0583 122.437 49.2161 122.188C49.2505 122.023 49.2801 121.855 49.3121 121.685Z" fill="#1AB9CA"/>
    <path d="M87.2368 25.5055C87.7688 26.5247 88.35 27.5192 88.8278 28.563C91.1182 33.5897 92.6624 38.8312 92.783 44.3835C92.8569 47.8655 92.5934 51.3524 92.5638 54.8368C92.5589 55.4784 92.7929 56.2335 93.1722 56.7517C95.699 60.2164 98.2973 63.6268 100.859 67.0668C101.078 67.3605 101.203 67.7257 101.371 68.0564C101.282 68.1353 101.194 68.2143 101.102 68.2933C100.827 68.0613 100.511 67.8639 100.285 67.5924C97.4648 64.1722 94.6277 60.7642 91.8792 57.2872C91.4186 56.7049 91.1699 55.7992 91.1674 55.0391C91.1551 50.9329 91.5221 46.8093 91.2265 42.7277C90.9876 39.4111 90.1281 36.1142 89.2982 32.8741C88.7465 30.7198 87.7564 28.679 86.9831 26.5814C86.8772 26.2952 86.8895 25.967 86.8477 25.656C86.9806 25.6042 87.1087 25.5548 87.2368 25.5055Z" fill="#1AB9CA"/>
</svg>
