<svg width="95" height="156" viewBox="0 0 95 156" fill="none" xmlns="http://www.w3.org/2000/svg">
    <path fill-rule="evenodd" clip-rule="evenodd" d="M47.9637 32.8744C48.3428 29.079 47.0228 27.1252 43.8046 27.4568C44.8683 25.4783 46.8783 23.782 49.0601 25.3769H49.0683C51.0183 26.8128 51.4819 30.7041 51.261 32.899L47.9637 32.8744ZM93.921 75.152C96.3101 101.051 75.4874 138.919 73.0437 155.928C73.8074 140.703 79.2592 125.179 82.7937 112.102C86.1128 99.8258 89.4701 89.5606 88.3983 75.4781C87.0183 57.307 78.4274 44.0494 74.7237 28.4323C72.9946 21.1184 73.2019 7.69911 74.4346 0.552362C74.6228 31.3343 91.8455 53.2212 93.921 75.152ZM0.271908 75.152C-1.49264 100.736 18.7028 138.919 21.1492 155.928C20.3855 140.703 14.931 125.179 11.3965 112.102C8.07736 99.8258 4.72009 89.5606 5.79191 75.4781C7.48009 57.0138 16.8265 43.6246 19.5155 27.676C20.8328 19.8661 21.0592 8.09919 19.7583 0.549622C19.5701 31.3343 2.34736 53.2212 0.271908 75.152ZM47.9255 88.796C51.1901 77.7279 62.001 71.2689 66.9483 71.1621C61.2674 74.1326 51.9483 84.7979 49.3928 93.7149C54.9728 116.577 49.5837 142.739 46.4392 152.684C46.2701 137.664 50.6883 110.412 45.4246 92.1118C43.0983 84.0306 37.6274 76.2426 31.0655 71.6499C38.5192 74.1435 44.7265 80.5723 47.9255 88.796Z" fill="#1AB9CA"/>
</svg>
