<svg width="94" height="144" viewBox="0 0 94 144" fill="none" xmlns="http://www.w3.org/2000/svg">
    <g clip-path="url(#clip0_131_622)">
        <path fill-rule="evenodd" clip-rule="evenodd" d="M84.6 21C90.5 24.9 99.1 29.7 90 37.4C86.1 40.7 81.3 41.8 83.9 46.6C82.3 46.8 80.4 43 81.6 41.3C83.6 38.2 86.8 37.1 89.4 33.7C91.7 30.7 90.3 28.6 87.4 26.3C86.2 25.4 84.8 24.4 83.2 23.3C74.5 17.5 66.4 11.1 66 0C70.3 12.6 73.9 13.8 84.6 21ZM72 60.4C70.2 61.9 66.8 64.2 65.2 62.7C64.3 61.9 65.4 61.2 67 60.6C71.5 57.6 78.2 47.6 84.8 48.2C89.7 48.8 86.9 56.2 84.8 58.8C84.5 59.2 83.8 59.3 83.4 59.6C86.2 55.3 86.1 53.2 84 52.4C82.4 51.8 79.6 52.1 76 54.8C73.4 56.7 72.1 58.7 69.4 60.1C70.4 59.9 71.3 59.7 72 59.6C73.9 59 76 58.7 77.9 58.8C82.1 59 85.2 61.6 86.3 64.2C87.9 67.9 85.4 70.5 82.2 70.5C75.3 74.3 91.8 84.8 83.3 94.6C78.5 100.2 65.9 101.6 52.3 100.9C50.9 100.8 47.6 100.7 43.3 100.3C36.3 106.8 21.2 133.1 18.7 143.9C19.2 136.2 22.7 119.4 38.5 99.9C25.8 98.5 8.3 95.6 0 89.4C14 96.4 70.8 101.3 80.2 91.8C81.2 90.8 81.8 89.5 82 88.2C83 82.1 80.4 79.3 78.6 76.3C76.8 73.1 77.9 71 80 70C78.5 69.7 76.9 68.9 75.8 67.8C74.6 66.8 73.4 66 71.6 64.6C74.6 65 79.4 67.9 79.8 67.9C81.1 68.2 82.5 68.1 83.5 67.2C84.2 66.6 84.6 65.6 84.1 64.2C82.5 59.7 76.8 59.3 72 60.4Z" fill="#24B7C8"/>
        <path d="M12.9 43.3001C12.6 45.4001 12.3 47.3001 12 49.3001C11.8 49.3001 11.7 49.3001 11.5 49.3001C9.90002 46.6001 9.80002 43.5001 9.40002 40.3001C12.3 39.5001 15.1 39.1001 18.4 39.9001C16.7 41.5001 14.8 41.9001 13.3 42.5001C17.5 44.8001 21.9 47.0001 26.2 49.6001C30.4 52.1001 34.3 55.0001 37.6 58.8001C28.2 55.3001 20.2 49.9001 12.9 43.3001Z" fill="#24B7C8"/>
        <path d="M17.5 24.4C17.2 26.4999 16.9 28.3999 16.6 30.2999C16.4 30.2999 16.2 30.2999 16 30.4C15.6 29.2999 15 28.2 14.8 27C14.5 25.4 14.3 23.8 14.1 22.2C14 21.5 14.2 21.1 15 21.1C17.2 21 19.4 20.8 21.5 20.7C21.9 20.7 22.3 20.8 22.6 20.9C22.6 21.1 22.7 21.2 22.7 21.4C21 22.1999 19.4 22.8999 17.5 23.7999C26.6 27.6999 34.9 32.8 42.1 39.5C42 39.7 41.9 39.7999 41.8 40C32.8 36.4 24.8 31.0999 17.5 24.4Z" fill="#24B7C8"/>
    </g>
    <defs>
        <clipPath id="clip0_131_622">
            <rect width="93.9" height="143.8" fill="white"/>
        </clipPath>
    </defs>
</svg>
