<svg width="119" height="146" viewBox="0 0 119 146" fill="none" xmlns="http://www.w3.org/2000/svg">
    <path fill-rule="evenodd" clip-rule="evenodd" d="M18.06 22.6268C11.8787 24.7049 2.27147 40.5317 0.079834 39.5951C3.22879 33.7122 12.6125 22.6781 15.3484 20.6415C18.9712 17.939 27.8179 17.4244 33.8534 17.322C37.7531 13.2488 38.1516 5.23659 39.0749 3.05367C39.9837 8.93903 38.8854 15.6 37.3352 18.7171C35.9162 21.561 25.4221 20.1512 18.06 22.6268ZM67.209 23.6342C66.5773 21.8024 63.8268 8.36098 66.174 1.30245C66.2347 1.3122 68.8345 15.4195 69.77 20.6C75.0353 16.3146 86.8268 8.63659 90.4836 0.319519C91.0303 6.51708 85.5123 14.0073 78.7333 18.5781C75.8954 20.4976 70.8269 22.3659 67.209 23.6342ZM33.0248 59.1463C31.6375 68.8976 36.4119 77.4049 46.3496 78.8903C59.9999 80.9293 69.6874 69.0049 72.7464 56.7634C73.8398 72.8049 58.9649 87.061 45.1687 83.9585C31.3702 80.8561 28.7096 65.9902 33.0248 59.1463ZM80.422 92.2146C81.2749 90.6732 85.7505 81.4903 90.073 74.7317C99.6389 59.7781 100.628 46.5829 106.906 39.7268C115.129 31.9537 118.715 14.6415 118.795 4.57074C116.671 10.8415 111.061 28.8342 105.252 34.3195C102.926 36.5171 99.7337 40.6317 98.7375 43.7805C97.649 48.2659 93.5524 59.6049 89.7474 67.8878C83.6196 80.6756 75.4605 92.0024 71.1671 106.071C69.5051 111.517 73.1692 119.407 75.9488 124.181C82.1083 134.771 86.0906 145.044 86.1076 145.088C87.0771 129.1 77.6229 120.054 75.0085 109.493C74.4302 107.163 75.9221 100.351 80.422 92.2146ZM24.4138 32.9317L24.2048 34.6439C24.3045 34.6439 23.5391 44.1439 21.622 47.7122C18.1426 54.1951 7.11396 56.4902 6.71063 58.6903C5.28193 60.0463 2.00906 71.2781 5.06811 77.0683C6.81754 80.3781 10.7805 84.2927 14.3498 85.6854C12.5615 100.724 17.4015 101.617 16.8597 112.439C16.8427 112.737 17.6226 122.693 17.9337 131.371C19.6418 125.429 20.6137 118.583 20.5092 114.593C20.3926 110.183 19.9382 108.993 19.2749 105.388C17.9822 97.9 15.2998 95.139 17.7368 86.3488C17.8632 85.8902 18.0065 85.4122 18.162 84.9171C18.7063 85.1244 17.7514 84.7025 18.1985 84.9C19.2336 81.0195 3.64428 82.1146 8.0883 63.0634C8.36772 62.0317 8.74433 60.9659 9.23757 59.8732C12.4813 55.761 19.8289 56.9317 25.3322 47.4073C27.4073 43.8122 27.4097 36.9537 24.4138 32.9317Z" fill="#1AB9CA"/>
</svg>
