<svg width="110" height="93" viewBox="0 0 110 93" fill="none" xmlns="http://www.w3.org/2000/svg">
    <path d="M50.0324 83.6627C39.6713 83.6627 31.2439 75.2333 31.2439 64.8743C31.2439 59.0076 33.9059 54.1416 39.1583 50.4092C42.4769 48.0512 56.6464 47.8063 59.6124 49.5669C65.6374 53.1452 68.8209 58.4376 68.8209 64.8743C68.8209 75.2333 60.3935 83.6627 50.0324 83.6627ZM51.432 50.5676C50.8325 50.5676 50.2055 50.5781 49.5511 50.5992C45.1854 50.7449 41.51 51.3719 40.4017 52.1593C35.7489 55.4673 33.3887 59.7444 33.3887 64.8743C33.3887 74.0511 40.8535 81.5158 50.0303 81.5158C59.2071 81.5158 66.6718 74.0511 66.6718 64.8743C66.6718 57.7515 62.2343 53.6223 58.5125 51.412C57.7568 50.9623 55.1559 50.5676 51.432 50.5676Z" fill="#1AB9CA"/>
    <path d="M12.5589 59.9302C12.3499 59.9302 12.1388 59.8689 11.953 59.7423C11.4633 59.4066 11.3387 58.7395 11.6722 58.2497C11.6828 58.235 11.9087 57.9035 12.3478 57.3314C12.7088 56.8607 13.3822 56.772 13.853 57.1309C14.3237 57.4919 14.4124 58.1653 14.0535 58.6361C13.6545 59.1575 13.4477 59.4594 13.4455 59.4615C13.2387 59.7676 12.9009 59.9302 12.5589 59.9302ZM15.2568 56.5672C15.0056 56.5672 14.7523 56.4786 14.5475 56.2991C14.1021 55.9065 14.0599 55.2288 14.4504 54.7834C14.6805 54.5216 14.9254 54.2493 15.183 53.9685C15.5819 53.5315 16.2617 53.4998 16.7008 53.9009C17.1378 54.302 17.1695 54.9797 16.7684 55.4188C16.5193 55.6911 16.2849 55.9529 16.0633 56.2041C15.85 56.4448 15.5545 56.5672 15.2568 56.5672ZM96.8474 55.1275C96.5308 55.1275 96.2183 54.9881 96.0072 54.7222C95.6378 54.2577 95.7159 53.5822 96.1782 53.2127C96.4168 53.0227 96.6553 52.8095 96.8875 52.5773C97.3077 52.1593 97.9874 52.1593 98.4054 52.5794C98.8234 52.9995 98.8234 53.6793 98.4033 54.0973C98.1141 54.3844 97.8164 54.6525 97.5145 54.8931C97.3182 55.0515 97.0818 55.1275 96.8474 55.1275ZM18.2187 53.4492C17.94 53.4492 17.6613 53.3415 17.4523 53.1262C17.0386 52.7019 17.0449 52.0221 17.4692 51.6083C17.7247 51.3592 17.9864 51.1059 18.2588 50.8505C18.6894 50.443 19.3692 50.462 19.7766 50.8927C20.1841 51.3233 20.1651 52.0031 19.7344 52.4105C19.4726 52.6575 19.2193 52.9024 18.9744 53.1431C18.7591 53.3478 18.4889 53.4492 18.2187 53.4492ZM99.615 51.8701C99.4229 51.8701 99.2287 51.8194 99.0535 51.7097C98.549 51.3993 98.3927 50.7365 98.7031 50.2319C98.8762 49.9511 99.0472 49.6556 99.2139 49.3516C99.4968 48.8302 100.149 48.6381 100.671 48.9231C101.192 49.2059 101.384 49.8583 101.099 50.3797C100.915 50.7175 100.725 51.0468 100.531 51.3592C100.326 51.6885 99.9739 51.8701 99.615 51.8701ZM21.3958 50.5528C21.0918 50.5528 20.7878 50.424 20.5767 50.1728C20.1925 49.721 20.2495 49.0434 20.7013 48.6592C20.9757 48.427 21.2565 48.1926 21.5415 47.9583C21.9996 47.5825 22.6772 47.6501 23.053 48.1103C23.4288 48.5684 23.3612 49.246 22.901 49.6218C22.6245 49.8477 22.3542 50.0736 22.0904 50.2974C21.8877 50.4705 21.6407 50.5528 21.3958 50.5528ZM101.507 48.0153C101.376 48.0153 101.243 47.9921 101.112 47.9393C100.561 47.7219 100.291 47.097 100.508 46.546C100.633 46.2293 100.757 45.9 100.875 45.5707C101.076 45.0134 101.692 44.7241 102.25 44.9247C102.807 45.1252 103.096 45.7417 102.896 46.299C102.769 46.6494 102.638 46.9978 102.505 47.3355C102.34 47.7599 101.935 48.0153 101.507 48.0153ZM24.7714 47.895C24.44 47.895 24.1128 47.743 23.9038 47.4537C23.5554 46.9745 23.6589 46.3032 24.1381 45.9528C24.4294 45.7396 24.7271 45.5285 25.029 45.3152C25.5145 44.9754 26.1837 45.0936 26.5236 45.5791C26.8635 46.0647 26.7453 46.7339 26.2597 47.0738C25.9684 47.2764 25.6834 47.4812 25.4026 47.686C25.2126 47.8274 24.991 47.895 24.7714 47.895ZM28.3349 45.4968C27.976 45.4968 27.6235 45.3152 27.4208 44.988C27.1084 44.4835 27.2646 43.8227 27.7691 43.5103C28.0773 43.3203 28.3898 43.1303 28.7064 42.9445C29.2173 42.6426 29.876 42.8115 30.1779 43.3224C30.4797 43.8333 30.3108 44.4919 29.8 44.7938C29.496 44.9732 29.1962 45.1548 28.8985 45.3385C28.7233 45.444 28.5291 45.4968 28.3349 45.4968ZM102.856 43.9346C102.763 43.9346 102.668 43.9219 102.573 43.8966C102.001 43.7404 101.663 43.1493 101.819 42.5772C101.914 42.2267 102.003 41.8869 102.085 41.5597C102.229 40.9854 102.811 40.6329 103.388 40.7786C103.962 40.9221 104.312 41.5048 104.169 42.0811C104.082 42.4231 103.991 42.7798 103.89 43.1451C103.759 43.6201 103.326 43.9346 102.856 43.9346ZM32.0778 43.3878C31.6873 43.3878 31.3115 43.1746 31.1215 42.8031C30.8513 42.2753 31.0603 41.6293 31.588 41.3591C31.911 41.1944 32.2383 41.0298 32.5697 40.8693C33.1017 40.6118 33.7456 40.8334 34.0031 41.3675C34.2628 41.9016 34.039 42.5434 33.5049 42.8031C33.1882 42.9572 32.8737 43.1134 32.5634 43.2717C32.4093 43.3498 32.2404 43.3878 32.0778 43.3878ZM35.9791 41.5977C35.5547 41.5977 35.1536 41.3443 34.9848 40.9284C34.761 40.3796 35.0249 39.7526 35.5737 39.5288C35.9115 39.3916 36.2514 39.2565 36.5955 39.1256C37.1486 38.9145 37.7692 39.191 37.9825 39.7463C38.1936 40.2993 37.917 40.92 37.3618 41.1332C37.0325 41.2578 36.7074 41.3865 36.3865 41.5195C36.2514 41.5723 36.1142 41.5977 35.9791 41.5977ZM87.3814 40.179C87.2463 40.179 87.1091 40.179 86.9719 40.179C86.3787 40.1769 85.8994 39.6935 85.9037 39.1003C85.9058 38.5092 86.3871 38.0321 86.9782 38.0321C86.9803 38.0321 86.9824 38.0321 86.9824 38.0321C87.1365 38.0321 87.2885 38.0321 87.4426 38.0321C87.6453 38.0321 87.8458 38.0321 88.0443 38.03C88.0464 38.03 88.0485 38.03 88.0506 38.03C88.6396 38.03 89.1209 38.5071 89.123 39.0982C89.1273 39.6914 88.6481 40.1748 88.0548 40.1769C87.8353 40.1769 87.6073 40.179 87.3814 40.179ZM40.0218 40.1558C39.5615 40.1558 39.1372 39.8581 38.9958 39.3958C38.8227 38.8279 39.1414 38.2284 39.7072 38.0553C40.0555 37.9497 40.406 37.8463 40.7606 37.745C41.3306 37.5845 41.9238 37.9181 42.0843 38.4881C42.2447 39.058 41.9133 39.6513 41.3412 39.8117C41.0034 39.9067 40.6677 40.0059 40.3342 40.1072C40.2329 40.141 40.1252 40.1558 40.0218 40.1558ZM83.7588 40.1241C83.7483 40.1241 83.7377 40.1241 83.7293 40.1241C83.3767 40.1136 83.0157 40.103 82.6505 40.0903C82.0573 40.0692 81.5929 39.5731 81.614 38.9799C81.6351 38.3867 82.1354 37.9181 82.7244 37.9434C83.0854 37.9561 83.4422 37.9666 83.7905 37.9772C84.3837 37.9941 84.8502 38.488 84.8334 39.0813C84.8144 39.6618 84.3373 40.1241 83.7588 40.1241ZM91.27 40.1051C90.6958 40.1051 90.2208 39.6512 90.1976 39.0749C90.1744 38.4817 90.6346 37.9835 91.2278 37.9603C91.5867 37.9455 91.9371 37.9286 92.2854 37.9117C92.8723 37.8822 93.3832 38.3339 93.4148 38.9272C93.4465 39.5183 92.9926 40.0249 92.3994 40.0566C92.0427 40.0756 91.6795 40.0925 91.3122 40.1072C91.2974 40.1051 91.2827 40.1051 91.27 40.1051ZM79.4691 39.9552C79.4523 39.9552 79.4333 39.9552 79.4143 39.9531C79.0617 39.9362 78.7028 39.9172 78.3376 39.8982C77.7444 39.8666 77.2905 39.3599 77.3243 38.7688C77.356 38.1777 77.8605 37.7217 78.4537 37.7555C78.8147 37.7745 79.1715 37.7935 79.5219 37.8104C80.1151 37.84 80.5711 38.3445 80.5416 38.9356C80.512 39.5077 80.037 39.9552 79.4691 39.9552ZM95.5512 39.818C95.0045 39.818 94.5358 39.4021 94.483 38.8469C94.426 38.2558 94.8588 37.7323 95.4499 37.6753C95.8025 37.6415 96.1529 37.6056 96.5033 37.5676C97.0944 37.5022 97.6222 37.9286 97.6876 38.5176C97.7531 39.1066 97.3266 39.6365 96.7377 39.7019C96.3788 39.742 96.0178 39.7779 95.6547 39.8138C95.6209 39.8159 95.5871 39.818 95.5512 39.818ZM103.806 39.7378C103.742 39.7378 103.679 39.7315 103.613 39.7209C103.031 39.6154 102.642 39.058 102.748 38.4733C102.845 37.9371 102.898 37.5761 102.917 37.4452C103.001 36.8583 103.546 36.4509 104.133 36.5353C104.72 36.6198 105.127 37.1644 105.043 37.7513C105.021 37.8927 104.964 38.2833 104.861 38.8533C104.768 39.3726 104.316 39.7378 103.806 39.7378ZM75.1837 39.7082C75.1605 39.7082 75.1372 39.7083 75.114 39.7061C74.7615 39.6829 74.4026 39.6597 74.0395 39.6365C73.4484 39.5964 73.0008 39.0855 73.0388 38.4944C73.0789 37.9033 73.5919 37.4557 74.1809 37.4937C74.5419 37.517 74.8987 37.5423 75.2491 37.5634C75.8402 37.6014 76.2899 38.1123 76.2519 38.7034C76.216 39.2713 75.7452 39.7082 75.1837 39.7082ZM70.9003 39.4127C70.8729 39.4127 70.8475 39.4127 70.8201 39.4106L69.7477 39.3304C69.1566 39.286 68.7133 38.7709 68.7576 38.1798C68.8019 37.5887 69.3149 37.1454 69.9081 37.1897L70.9763 37.27C71.5674 37.3143 72.0107 37.8294 71.9685 38.4205C71.9284 38.982 71.4576 39.4127 70.9003 39.4127ZM99.8135 39.2966C99.2899 39.2966 98.8318 38.9124 98.7537 38.3783C98.6672 37.7914 99.0725 37.2467 99.6594 37.1602C100.008 37.1095 100.358 37.0546 100.711 36.9998C101.295 36.909 101.846 37.308 101.937 37.8927C102.03 38.4775 101.629 39.0285 101.042 39.1193C100.683 39.1763 100.326 39.2311 99.9718 39.2818C99.9169 39.2924 99.8642 39.2966 99.8135 39.2966ZM44.1784 39.0897C43.6802 39.0897 43.2327 38.7414 43.1292 38.2347C43.0089 37.6542 43.3826 37.0863 43.9631 36.966C44.3199 36.8921 44.6788 36.8224 45.0419 36.7549C45.6266 36.6472 46.184 37.0335 46.2916 37.6183C46.3993 38.2009 46.013 38.7604 45.4282 38.868C45.082 38.9314 44.74 38.9989 44.4001 39.0686C44.3241 39.0834 44.2502 39.0897 44.1784 39.0897ZM66.6191 39.0813C66.5895 39.0813 66.5621 39.0792 66.5325 39.077L65.4622 38.9905C64.8711 38.9419 64.432 38.4247 64.4785 37.8336C64.527 37.2425 65.0442 36.8013 65.6353 36.852L66.7035 36.9385C67.2946 36.9871 67.7358 37.5043 67.6873 38.0954C67.6429 38.6548 67.1722 39.0813 66.6191 39.0813ZM62.34 38.7266C62.3104 38.7266 62.2787 38.7245 62.2471 38.7224L61.1768 38.6316C60.5857 38.5809 60.1487 38.0616 60.1993 37.4705C60.25 36.8794 60.7672 36.4403 61.3604 36.4931L62.4286 36.5839C63.0197 36.6345 63.4567 37.1539 63.4082 37.745C63.3596 38.3023 62.8909 38.7266 62.34 38.7266ZM48.4154 38.4163C47.8749 38.4163 47.4105 38.011 47.3493 37.46C47.2838 36.871 47.7081 36.339 48.2971 36.2735C48.6581 36.2334 49.0233 36.1975 49.3886 36.1659C49.9797 36.1152 50.5011 36.5501 50.5518 37.1412C50.6045 37.7323 50.1675 38.2537 49.5764 38.3044C49.226 38.3361 48.8777 38.3698 48.5336 38.4078C48.4956 38.4142 48.4555 38.4163 48.4154 38.4163ZM58.0608 38.3551C58.0291 38.3551 57.9975 38.3529 57.9658 38.3508L57.6091 38.3192C57.3747 38.2981 57.1425 38.2791 56.9124 38.2622C56.3213 38.2178 55.878 37.7048 55.9202 37.1116C55.9645 36.5205 56.4775 36.0793 57.0707 36.1194C57.3135 36.1363 57.5563 36.1574 57.8012 36.1785L58.1579 36.2102C58.749 36.263 59.186 36.7823 59.1332 37.3734C59.0805 37.9328 58.6118 38.3551 58.0608 38.3551ZM52.6987 38.1439C52.1139 38.1439 51.6347 37.6753 51.6263 37.0884C51.6157 36.4952 52.0886 36.0075 52.6818 35.997C52.9542 35.9928 53.2286 35.9907 53.5051 35.9907H53.7817C54.3749 35.9949 54.852 36.4783 54.8478 37.0715C54.8436 37.6626 54.3643 38.1376 53.7754 38.1376C53.7732 38.1376 53.7711 38.1376 53.769 38.1376H53.5073C53.2434 38.1376 52.9816 38.1397 52.7198 38.1439C52.7114 38.1439 52.705 38.1439 52.6987 38.1439Z" fill="#1AB9CA"/>
    <path d="M3.96036 32.2055C-4.02654e-07 32.2055 0 25.8132 0 23.7127C0 19.2035 3.2426 17.0692 3.38193 16.9805C3.41782 16.9573 3.45582 16.9362 3.49593 16.9172C3.68381 16.8264 22.4913 7.78892 39.4938 3.36412L39.764 4.40277L39.4938 3.36412C50.7733 0.42974 62.458 -0.655349 71.5504 0.387517C83.7671 1.78927 93.3936 8.47713 99.3193 13.8413C105.718 19.6341 109.201 25.0258 109.347 25.2538C109.634 25.7013 109.55 26.2924 109.148 26.6429C108.747 26.9933 108.15 26.9954 107.745 26.6492C107.696 26.607 102.771 22.4186 95.4139 18.5469C88.6775 15.0024 78.4599 10.9977 68.0312 12.0638C56.0699 13.2861 39.0589 19.9001 25.3898 25.2137C15.3369 29.1191 7.39718 32.2055 3.96036 32.2055ZM4.49657 18.815C4.16513 19.0515 2.14484 20.6158 2.14484 23.7106C2.14484 27.7427 2.80561 30.0564 3.95825 30.0564C6.99396 30.0564 15.1553 26.8835 24.6066 23.2103C38.3961 17.8503 55.559 11.1772 67.8075 9.92532C78.7892 8.80223 89.4459 12.9716 96.4546 16.6681C98.8591 17.9368 100.996 19.2246 102.798 20.3962C101.42 18.853 99.7542 17.1325 97.8268 15.3909C92.1438 10.2568 82.929 3.85389 71.3013 2.52181C62.4601 1.50849 51.0625 2.57247 40.03 5.44141C23.7601 9.6741 5.77166 18.207 4.49657 18.815Z" fill="#1AB9CA"/>
    <path d="M53.1229 93C52.5445 93 52.0674 92.5419 52.0505 91.9592C52.0315 91.366 52.498 90.872 53.0913 90.853C53.4396 90.8425 53.7879 90.8277 54.1383 90.8066C54.7337 90.7728 55.2361 91.2267 55.2699 91.8199C55.3036 92.4131 54.8498 92.9177 54.2566 92.9514C53.8892 92.9726 53.5219 92.9873 53.1567 93C53.1461 93 53.1356 93 53.1229 93ZM49.9057 92.981C49.8909 92.981 49.8761 92.981 49.8592 92.981C49.4919 92.9662 49.1267 92.9451 48.7615 92.9219C48.1704 92.8839 47.7207 92.3709 47.7608 91.7798C47.7988 91.1887 48.3118 90.739 48.9029 90.7792C49.2512 90.8024 49.5995 90.8214 49.95 90.8362C50.5432 90.8615 51.0034 91.3618 50.9781 91.955C50.9527 92.5292 50.4778 92.981 49.9057 92.981ZM57.3999 92.6517C56.8701 92.6517 56.4098 92.259 56.3381 91.7207C56.26 91.1338 56.6716 90.5934 57.2606 90.5132C57.6047 90.4667 57.9488 90.4161 58.295 90.3612C58.8777 90.2683 59.4308 90.6652 59.5258 91.252C59.6208 91.8368 59.2218 92.3878 58.6349 92.4828C58.2718 92.5419 57.9087 92.5947 57.5456 92.6432C57.497 92.6475 57.4485 92.6517 57.3999 92.6517ZM45.6286 92.6031C45.5801 92.6031 45.5315 92.5989 45.483 92.5926C45.1199 92.544 44.7568 92.4912 44.3979 92.4342C43.8131 92.3414 43.412 91.7925 43.5028 91.2077C43.5936 90.6208 44.1445 90.2218 44.7293 90.3126C45.0734 90.3675 45.4196 90.4182 45.768 90.4646C46.3548 90.5448 46.7686 91.0853 46.6884 91.6721C46.6187 92.2105 46.1585 92.6031 45.6286 92.6031ZM61.62 91.86C61.1365 91.86 60.6974 91.5307 60.5771 91.0388C60.4378 90.4625 60.7903 89.882 61.3666 89.7426C61.7023 89.6603 62.0401 89.5737 62.3778 89.483C62.9499 89.3267 63.541 89.6645 63.6951 90.2366C63.8514 90.8087 63.5136 91.3998 62.9415 91.5539C62.5847 91.651 62.2279 91.7418 61.8733 91.8284C61.7888 91.8495 61.7044 91.86 61.62 91.86ZM41.4023 91.8474C41.3263 91.8474 41.2461 91.8389 41.1679 91.822C40.8091 91.7418 40.4544 91.6595 40.1019 91.5729C39.5255 91.4336 39.173 90.853 39.3123 90.2767C39.4517 89.7004 40.0343 89.3479 40.6085 89.4872C40.9484 89.5695 41.2904 89.6497 41.6324 89.7257C42.2108 89.8545 42.576 90.4266 42.4473 91.0072C42.3375 91.5054 41.8942 91.8474 41.4023 91.8474ZM37.2498 90.7517C37.1464 90.7517 37.0408 90.7369 36.9353 90.7053C36.5848 90.5976 36.2365 90.4878 35.8924 90.3759C35.3287 90.1923 35.0205 89.5864 35.2042 89.0227C35.3878 88.4591 35.9937 88.1509 36.5574 88.3345C36.8888 88.4422 37.2245 88.5478 37.5622 88.6512C38.1301 88.8243 38.4489 89.4239 38.2758 89.9917C38.1343 90.4541 37.71 90.7517 37.2498 90.7517ZM65.7302 90.6272C65.289 90.6272 64.8773 90.3548 64.719 89.9157C64.5184 89.3584 64.8098 88.742 65.3671 88.5435C65.6943 88.4274 66.0194 88.305 66.3466 88.1783C66.8997 87.963 67.5204 88.2374 67.7357 88.7905C67.951 89.3436 67.6766 89.9643 67.1235 90.1796C66.7794 90.3126 66.4353 90.4414 66.0912 90.5638C65.973 90.606 65.8505 90.6272 65.7302 90.6272ZM33.1902 89.35C33.0615 89.35 32.9327 89.3267 32.806 89.2782C32.464 89.1473 32.1241 89.0122 31.7906 88.8771C31.2417 88.6554 30.9757 88.0284 31.1974 87.4796C31.419 86.9307 32.0439 86.6647 32.5949 86.8864C32.9179 87.0172 33.2451 87.146 33.5765 87.2748C34.1296 87.488 34.4062 88.1087 34.193 88.6618C34.0283 89.0882 33.6209 89.35 33.1902 89.35ZM69.6906 88.9721C69.2895 88.9721 68.9074 88.7483 68.7216 88.362C68.4661 87.8279 68.6899 87.1861 69.2261 86.9286C69.5386 86.7787 69.851 86.6246 70.1634 86.4641C70.6912 86.1939 71.3372 86.405 71.6074 86.9328C71.8776 87.4606 71.6686 88.1087 71.1388 88.3768C70.8115 88.5435 70.4822 88.7082 70.1529 88.8644C70.0051 88.9383 69.8468 88.9721 69.6906 88.9721ZM29.2341 87.6759C29.0821 87.6759 28.9301 87.6442 28.7844 87.5767C28.4509 87.4226 28.1216 87.2663 27.7986 87.1101C27.2645 86.8526 27.0407 86.2108 27.2982 85.6767C27.5558 85.1426 28.1976 84.9188 28.7317 85.1764C29.0462 85.3284 29.365 85.4783 29.688 85.6282C30.2263 85.8773 30.4606 86.5148 30.2115 87.0531C30.0278 87.4437 29.6394 87.6759 29.2341 87.6759ZM73.4651 86.9265C73.102 86.9265 72.7474 86.7428 72.5468 86.4092C72.2386 85.9026 72.4012 85.2418 72.9078 84.9336C73.2055 84.7542 73.501 84.5684 73.7987 84.3805C74.299 84.0617 74.9619 84.2074 75.2807 84.7077C75.5994 85.2081 75.4538 85.8709 74.9534 86.1897C74.6431 86.3881 74.3328 86.5824 74.0204 86.7702C73.8472 86.8758 73.6551 86.9265 73.4651 86.9265ZM25.3941 85.7485C25.2209 85.7485 25.0457 85.7063 24.8832 85.6197C24.5581 85.4445 24.2414 85.2693 23.929 85.0941C23.4118 84.8048 23.2281 84.1504 23.5173 83.6332C23.8086 83.116 24.461 82.9323 24.9782 83.2215C25.2822 83.3925 25.5904 83.5614 25.9049 83.7324C26.4264 84.0153 26.6206 84.6655 26.3377 85.1869C26.1456 85.5458 25.7762 85.7485 25.3941 85.7485ZM77.0286 84.5346C76.6993 84.5346 76.3742 84.3847 76.1631 84.0976C75.8105 83.6205 75.9119 82.9471 76.389 82.5967C76.6697 82.3898 76.9484 82.1787 77.2271 81.9633C77.6957 81.6023 78.3713 81.6889 78.7323 82.1576C79.0932 82.6262 79.0067 83.3018 78.538 83.6627C78.2467 83.8865 77.9554 84.1082 77.6619 84.3235C77.4741 84.4671 77.2503 84.5346 77.0286 84.5346ZM21.6807 83.5889C21.4865 83.5889 21.2901 83.5361 21.1128 83.4263C20.7962 83.23 20.4901 83.0337 20.1924 82.8416C19.6942 82.5207 19.5506 81.8557 19.8736 81.3575C20.1945 80.8593 20.8595 80.7157 21.3577 81.0387C21.6469 81.2245 21.9446 81.4145 22.2507 81.6066C22.7531 81.9211 22.9072 82.5819 22.5927 83.0864C22.39 83.4094 22.0396 83.5889 21.6807 83.5889ZM80.3726 81.8451C80.0728 81.8451 79.7751 81.7206 79.564 81.4778C79.1735 81.0324 79.2199 80.3526 79.6653 79.9621C79.9271 79.7319 80.1889 79.4997 80.4507 79.2612C80.8898 78.8622 81.5695 78.896 81.9664 79.333C82.3654 79.7721 82.3316 80.4518 81.8946 80.8487C81.6223 81.0957 81.35 81.3385 81.0776 81.577C80.875 81.7586 80.6238 81.8451 80.3726 81.8451ZM17.8766 81.6425C17.7794 81.6425 17.6781 81.6298 17.5789 81.6002C17.2749 81.5137 16.9498 81.4335 16.6141 81.3638C16.0336 81.2435 15.662 80.6735 15.7824 80.0929C15.9027 79.5124 16.4706 79.1387 17.0532 79.2612C17.4417 79.3414 17.8196 79.4343 18.1742 79.5356C18.7442 79.6982 19.0735 80.2935 18.911 80.8635C18.7738 81.3364 18.3431 81.6425 17.8766 81.6425ZM13.6375 80.9986C13.6206 80.9986 13.6038 80.9986 13.589 80.9965C12.9979 80.969 12.6073 80.9775 12.5883 80.9775C12.0036 80.9965 11.5054 80.5236 11.4906 79.9304C11.4758 79.3372 11.9445 78.8453 12.5356 78.8305C12.5356 78.8305 12.9747 78.8179 13.6861 78.8516C14.2793 78.8791 14.7374 79.3815 14.71 79.9726C14.6825 80.5489 14.2075 80.9986 13.6375 80.9986ZM83.4948 78.9002C83.2225 78.9002 82.9502 78.7967 82.7412 78.592C82.319 78.1761 82.3147 77.4963 82.7306 77.0741C82.9755 76.825 83.2204 76.5738 83.4653 76.3162C83.8748 75.8877 84.5546 75.8708 84.9831 76.2782C85.4117 76.6878 85.4286 77.3676 85.0211 77.7961C84.7678 78.0621 84.5145 78.3239 84.2611 78.5793C84.05 78.7925 83.7714 78.9002 83.4948 78.9002ZM86.4018 75.742C86.1527 75.742 85.9036 75.6555 85.7009 75.4803C85.2512 75.0939 85.2027 74.4142 85.589 73.9666C85.817 73.7027 86.045 73.4325 86.273 73.1602C86.653 72.7042 87.3306 72.6451 87.7845 73.0251C88.2405 73.4051 88.2996 74.0827 87.9196 74.5366C87.6853 74.8174 87.4488 75.0939 87.2145 75.3684C87.0034 75.6154 86.7036 75.742 86.4018 75.742ZM89.106 72.4087C88.878 72.4087 88.65 72.3369 88.4558 72.1891C87.9851 71.8281 87.8943 71.1547 88.2553 70.6839C88.4685 70.4053 88.6796 70.1245 88.8907 69.8395C89.2433 69.3624 89.9167 69.2632 90.3938 69.6178C90.8709 69.9704 90.9701 70.6438 90.6155 71.1188C90.398 71.4122 90.1785 71.7014 89.961 71.9886C89.7478 72.263 89.429 72.4087 89.106 72.4087Z" fill="#1AB9CA"/>
    <path d="M52.1814 83.6184C44.0517 83.6184 35.8502 81.5263 30.2432 78.0241C23.8087 74.0025 16.876 74.9293 16.8063 74.9398C16.2194 75.0222 15.6769 74.6168 15.5924 74.03C15.508 73.4431 15.9133 72.9005 16.5002 72.8161C16.8126 72.7696 24.2583 71.7521 31.3811 76.2043C36.6609 79.5039 44.4359 81.4736 52.1814 81.4736C68.6055 81.4736 81.0629 70.0041 81.1854 69.8901C81.6181 69.4848 82.2979 69.508 82.7032 69.9408C83.1086 70.3736 83.0853 71.0533 82.6547 71.4587C82.1248 71.9506 69.4774 83.6184 52.1814 83.6184Z" fill="#1AB9CA"/>
    <path d="M95.7769 90.3189C95.1837 90.3189 94.7024 89.8376 94.7024 89.2444V73.3544C94.7024 72.7612 95.1837 72.2798 95.7769 72.2798C96.3701 72.2798 96.8515 72.7612 96.8515 73.3544V89.2444C96.8494 89.8397 96.3701 90.3189 95.7769 90.3189Z" fill="#1AB9CA"/>
    <path d="M95.777 90.3189C95.4646 90.3189 95.1648 90.1817 94.9621 89.9431L90.8878 85.189C90.5015 84.7394 90.5542 84.0617 91.0039 83.6754C91.4536 83.2891 92.1312 83.3418 92.5175 83.7915L95.777 87.5935L99.0365 83.7915C99.4228 83.3418 100.1 83.2891 100.55 83.6754C101 84.0617 101.053 84.7394 100.666 85.189L96.5919 89.9431C96.3871 90.1838 96.0894 90.3189 95.777 90.3189Z" fill="#1AB9CA"/>
    <path d="M7.29353 56.069C6.70032 56.069 6.21899 55.5877 6.21899 54.9945V39.1045C6.21899 38.5113 6.70032 38.03 7.29353 38.03C7.88674 38.03 8.36806 38.5113 8.36806 39.1045V54.9945C8.36806 55.5898 7.88674 56.069 7.29353 56.069Z" fill="#1AB9CA"/>
    <path d="M11.368 44.9332C11.0661 44.9332 10.7642 44.8065 10.5531 44.5574L7.29361 40.7554L4.03413 44.5574C3.6478 45.007 2.97015 45.0598 2.52049 44.6735C2.07084 44.2872 2.01806 43.6095 2.40438 43.1599L6.47874 38.4057C6.68352 38.1672 6.98118 38.03 7.29361 38.03C7.60605 38.03 7.90582 38.1672 8.10849 38.4057L12.1828 43.1599C12.5692 43.6095 12.5164 44.2872 12.0667 44.6735C11.8641 44.8466 11.615 44.9332 11.368 44.9332Z" fill="#1AB9CA"/>
    <path d="M3.96036 32.2055C-4.02654e-07 32.2055 0 25.8132 0 23.7126C0 19.2034 3.2426 17.0691 3.38193 16.9805C3.41782 16.9572 3.45582 16.9361 3.49593 16.9171C3.52759 16.9023 6.67308 15.3866 11.4694 13.3241C12.0141 13.0898 12.6453 13.341 12.8796 13.8877C13.1139 14.4324 12.8627 15.0636 12.316 15.2979C7.96083 17.1683 4.98634 18.5849 4.49868 18.8171C4.16725 19.0535 2.14695 20.6178 2.14695 23.7126C2.14695 27.7448 2.80772 30.0585 3.96036 30.0585C6.99607 30.0585 15.1575 26.8856 24.6087 23.2123C38.3982 17.8523 55.5612 11.1792 67.8096 9.92738C68.4028 9.86827 68.9263 10.2968 68.9875 10.8858C69.0488 11.4748 68.6181 12.0026 68.0291 12.0638C56.0678 13.2861 39.0568 19.9001 25.3877 25.2136C15.3369 29.1191 7.39718 32.2055 3.96036 32.2055Z" fill="#1AB9CA"/>
    <path d="M14.8028 69.3519C14.5685 69.3519 14.3321 69.2759 14.1336 69.1175C13.6692 68.7481 13.5932 68.0725 13.9648 67.6081C14.1252 67.4076 17.942 62.6598 24.347 57.8444C30.2896 53.3774 39.6501 48.0554 50.4946 48.0554C61.2928 48.0554 70.7313 52.4612 76.7479 56.1577C83.25 60.1518 87.1639 64.0974 87.3285 64.2642C87.7444 64.6864 87.7402 65.3662 87.318 65.782C86.8958 66.1979 86.216 66.1937 85.8001 65.7715C85.646 65.6153 70.212 50.2024 50.4946 50.2024C40.2623 50.2024 31.3536 55.2732 25.6812 59.527C19.4789 64.1776 15.6789 68.9001 15.6409 68.9465C15.4298 69.2125 15.1174 69.3519 14.8028 69.3519Z" fill="#1AB9CA"/>
    <path d="M86.6888 64.091C85.173 64.091 84.1048 63.9116 83.9887 63.8905C83.404 63.787 83.0155 63.2297 83.119 62.6471C83.2224 62.0623 83.7797 61.6739 84.3624 61.7773C84.4278 61.7879 91.1305 62.9025 94.5567 59.0857C94.9536 58.6445 95.6313 58.6086 96.0725 59.0055C96.5137 59.4024 96.5496 60.08 96.1548 60.5212C93.4526 63.5274 89.3698 64.091 86.6888 64.091Z" fill="#1AB9CA"/>
    <path d="M58.1051 51.0552C57.7926 51.0552 57.5857 51.013 57.5034 50.9919L58.0249 48.9083C58.0249 48.9083 58.0101 48.9041 57.9826 48.8998C58.0122 48.9041 60.7925 49.2672 64.2272 42.6638C64.5016 42.1381 65.1497 41.9333 65.6754 42.2078C66.201 42.4822 66.4058 43.1303 66.1313 43.656C62.6861 50.2741 59.4414 51.0552 58.1051 51.0552Z" fill="#1AB9CA"/>
    <path d="M66.0595 52.7905C64.9364 52.7905 64.1933 52.5329 64.0814 52.4907C63.5262 52.2838 63.2412 51.6653 63.4481 51.1101C63.6529 50.557 64.2672 50.2741 64.8203 50.4747C65.0187 50.5443 69.1902 51.8954 72.722 45.7628C73.0176 45.2477 73.6741 45.0724 74.1892 45.368C74.7022 45.6635 74.8795 46.3201 74.584 46.8352C72.2829 50.8314 69.6061 52.1741 67.7652 52.5963C67.134 52.7398 66.5598 52.7905 66.0595 52.7905Z" fill="#1AB9CA"/>
    <path d="M79.9588 60.023C79.6274 60.023 79.4226 60.0104 79.3699 60.0061C78.7788 59.9618 78.3354 59.4467 78.3798 58.8556C78.4241 58.2645 78.9413 57.8191 79.5282 57.8655C79.8807 57.8908 87.9619 58.3532 92.6274 50.3776C92.9271 49.8667 93.5837 49.6936 94.0967 49.9933C94.6075 50.2931 94.7806 50.9497 94.4809 51.4626C89.8217 59.4256 82.1501 60.023 79.9588 60.023Z" fill="#1AB9CA"/>
    <path d="M73.9317 56.1112C72.9965 56.1112 72.4033 55.9909 72.3146 55.9719C71.7362 55.8473 71.3667 55.2752 71.4934 54.6947C71.6179 54.1163 72.1879 53.7489 72.7664 53.8714C73.0682 53.9326 79.8701 55.2035 84.9557 46.2103C85.247 45.6952 85.9035 45.5137 86.4186 45.805C86.9337 46.0963 87.1174 46.7529 86.824 47.268C82.416 55.0641 76.693 56.1112 73.9317 56.1112Z" fill="#1AB9CA"/>
    <path d="M50.676 49.0898C50.676 49.0898 53.6822 46.7275 54.3261 43.0775Z" fill="#1AB9CA"/>
    <path d="M50.6762 50.1643C50.3574 50.1643 50.0429 50.0229 49.8318 49.7548C49.4666 49.2882 49.5468 48.6148 50.0112 48.2496C50.0387 48.2285 52.7091 46.0773 53.2707 42.8938C53.3741 42.3091 53.9293 41.9185 54.5141 42.0241C55.0989 42.1275 55.4873 42.6848 55.3839 43.2675C54.6767 47.2764 51.4763 49.8308 51.3391 49.9385C51.1427 50.0905 50.9084 50.1643 50.6762 50.1643Z" fill="#1AB9CA"/>
    <path d="M50.0323 55.9614C48.3814 55.9614 46.8256 56.3688 45.4576 57.0866C47.0008 57.6692 48.1007 59.1554 48.1007 60.9013C48.1007 63.1538 46.2746 64.9819 44.02 64.9819C42.557 64.9819 41.2777 64.2093 40.5578 63.0524C40.2982 63.937 40.1567 64.8722 40.1567 65.8412C40.1567 71.2961 44.5794 75.7188 50.0344 75.7188C55.4894 75.7188 59.9121 71.2961 59.9121 65.8412C59.91 60.384 55.4873 55.9614 50.0323 55.9614Z" fill="#1AB9CA"/>
    <path d="M44.0201 66.0544C41.1786 66.0544 38.8669 63.7428 38.8669 60.9013C38.8669 58.0598 41.1786 55.7482 44.0201 55.7482C46.8616 55.7482 49.1732 58.0598 49.1732 60.9013C49.1732 63.7428 46.8616 66.0544 44.0201 66.0544ZM44.0201 57.8951C42.3629 57.8951 41.0139 59.2441 41.0139 60.9013C41.0139 62.5585 42.3629 63.9074 44.0201 63.9074C45.6772 63.9074 47.0262 62.5585 47.0262 60.9013C47.0262 59.2441 45.6772 57.8951 44.0201 57.8951Z" fill="#1AB9CA"/>
</svg>
