<svg width="67" height="132" viewBox="0 0 67 132" fill="none" xmlns="http://www.w3.org/2000/svg">
    <path d="M64.4025 95.2569C63.2211 96.7104 62.1281 98.2581 60.8273 99.6201C57.0288 103.599 52.1736 105.842 46.8615 107.22C44.7688 107.761 42.6268 108.169 40.4848 108.48C38.1818 108.817 35.8503 109 33.5266 109.186C32.9476 109.233 32.623 109.437 32.4906 109.925C32.3296 110.516 32.1505 111.12 32.1167 111.724C31.948 114.809 32.1635 117.875 32.7373 120.918C33.2176 123.465 33.6642 126.019 34.1289 128.568C34.2743 129.365 34.4716 130.157 34.5599 130.96C34.6248 131.556 34.225 131.898 33.6304 131.982C33.0203 132.068 32.5529 131.851 32.3218 131.279C32.1998 130.973 32.1038 130.654 32.0388 130.332C31.4858 127.598 30.8653 124.876 30.4239 122.126C30.037 119.697 29.7385 117.245 29.6242 114.793C29.5463 113.117 29.8397 111.423 29.9929 109.74C30.0111 109.525 30.1721 109.322 30.2681 109.112L30.8627 107.92C31.0834 107.599 31.4625 107.379 31.6831 107.188L32.9242 106.927C34.1445 106.801 35.4531 106.689 36.7538 106.527C38.7063 106.284 40.6562 106.025 42.6034 105.735C45.4828 105.306 48.2375 104.462 50.917 103.356C54.8998 101.711 58.3062 99.3377 60.8299 95.9079C63.4133 92.3996 65.2411 88.622 64.3661 84.1333C64.1454 82.9988 63.8079 81.8642 63.3432 80.8028C62.1307 78.0317 60.3184 75.6083 58.3322 73.3235C55.2944 69.8335 52.1918 66.3957 49.0969 62.9502C45.7035 59.17 42.5567 55.2068 39.5968 51.105C36.2086 46.4125 32.7892 41.7382 29.5385 36.9542C26.6877 32.7609 24.1096 28.3925 21.2977 24.1705C19.379 21.2897 18.3794 18.2441 18.7351 14.8142C18.9947 12.3228 19.2648 9.83406 19.527 7.34269C19.7347 5.37417 19.9035 3.40303 20.1657 1.44236C20.228 0.969179 20.4902 0.412348 20.8563 0.124781C21.1082 -0.0739007 21.7988 -0.021617 22.1026 0.184908C22.4012 0.386204 22.627 0.937809 22.5933 1.30903C22.4089 3.27494 22.1233 5.233 21.8897 7.19368C21.7183 8.63413 21.5729 10.0772 21.4275 11.5202C21.3522 12.2653 21.3496 13.0208 21.225 13.7554C20.781 16.3932 20.9628 18.9447 22.4089 21.2766C24.6937 24.9627 27.0045 28.6304 29.3698 32.2668C31.3975 35.383 33.4331 38.5018 35.614 41.5186C39.1944 46.47 42.7774 51.4318 46.5837 56.2185C49.5825 59.9856 52.9058 63.5122 56.1149 67.1199C58.9839 70.3458 61.91 73.5221 64.1792 77.1978C65.3631 79.114 66.3212 81.14 66.7288 83.3282C67.3987 86.9201 66.8171 90.3761 65.1061 93.6387L64.4025 95.2569Z" fill="#1AB9CA"/>
    <path d="M1.21742 90.4154C1.93401 88.7946 2.95698 87.3881 4.24997 86.1699C4.8679 85.5869 5.1509 85.6523 5.56891 86.3215C5.63901 86.4339 5.7247 86.5411 5.82595 86.6274C6.44648 87.1607 6.45427 87.3593 5.87529 87.924C3.92023 89.8376 2.73369 92.1042 2.61426 94.8178C2.52339 96.8882 3.08939 98.8202 4.16688 100.603C5.77403 103.264 8.11335 104.99 11.2549 105.578C13.8305 106.059 16.3178 105.534 18.7376 104.705C22.1077 103.555 25.2156 101.874 28.3468 100.229C31.4832 98.5823 34.5027 96.6713 38.0597 95.9131C39.7292 95.5576 41.3078 95.7615 42.5177 97.0216C43.7977 98.3574 44.2521 100.504 42.6293 101.696C41.9543 102.19 41.165 102.577 40.3757 102.88C37.9533 103.808 35.3647 104.056 32.8177 104.404C30.777 104.681 28.7025 104.713 26.6436 104.872C25.7426 104.943 24.8027 104.932 23.9537 105.186C22.6841 105.567 21.4872 106.169 20.2461 106.642C18.0185 107.492 15.7285 108.072 13.0516 108.061C11.3406 108.116 9.45566 107.727 7.65639 106.867C3.70473 104.979 1.35762 101.85 0.493036 97.73C-0.0262354 95.2622 0.165893 92.7865 1.21742 90.4154ZM30.146 102.263C31.3533 102.156 32.5658 102.101 33.7654 101.931L37.7586 101.183C38.7763 100.927 39.7552 100.504 40.734 100.119C41.2065 99.9338 41.3338 99.6227 41.0507 99.126C40.5886 98.3208 39.8668 97.8764 38.8283 98.1849C37.2601 98.6502 35.7152 99.2175 34.2145 99.8632C32.8956 100.431 31.6519 101.163 30.3745 101.819C30.2395 101.889 30.0889 101.931 29.9435 101.986C30.011 102.08 30.0785 102.172 30.146 102.263Z" fill="#1AB9CA"/>
</svg>
