<svg xmlns="http://www.w3.org/2000/svg" display="none">

    <symbol id="youtube" viewBox="0 0 18 12">
        <path d="M17.4814 1.97721C17.2869 1.25428 16.7169 0.684395 15.9941 0.489731C14.6736 0.128418 9.39139 0.128418 9.39139 0.128418C9.39139 0.128418 4.10941 0.128418 2.78889 0.476032C2.07996 0.67049 1.49607 1.25438 1.30161 1.97721C0.954102 3.29763 0.954102 6.03601 0.954102 6.03601C0.954102 6.03601 0.954102 8.78818 1.30161 10.0948C1.49628 10.8176 2.06606 11.3875 2.78899 11.5822C4.12331 11.9436 9.3916 11.9436 9.3916 11.9436C9.3916 11.9436 14.6736 11.9436 15.9941 11.596C16.717 11.4014 17.2869 10.8315 17.4816 10.1087C17.829 8.78818 17.829 6.04991 17.829 6.04991C17.829 6.04991 17.8429 3.29763 17.4814 1.97721V1.97721ZM7.70966 8.56581V3.5062L12.1021 6.03601L7.70966 8.56581Z"/>
    </symbol>

    <symbol id="instagram" viewBox="0 0 15 14">
        <path d="M7.40039 4.15625C5.81719 4.15625 4.5293 5.44414 4.5293 7.02734C4.5293 8.61055 5.81719 9.89844 7.40039 9.89844C8.98359 9.89844 10.2715 8.61055 10.2715 7.02734C10.2715 5.44414 8.98359 4.15625 7.40039 4.15625ZM7.40039 4.15625C5.81719 4.15625 4.5293 5.44414 4.5293 7.02734C4.5293 8.61055 5.81719 9.89844 7.40039 9.89844C8.98359 9.89844 10.2715 8.61055 10.2715 7.02734C10.2715 5.44414 8.98359 4.15625 7.40039 4.15625ZM12.3496 0H2.45117C1.31914 0 0.400391 0.91875 0.400391 2.05078V11.9492C0.400391 13.0813 1.31914 14 2.45117 14H12.3496C13.4816 14 14.4004 13.0813 14.4004 11.9492V2.05078C14.4004 0.91875 13.4816 0 12.3496 0ZM7.40039 10.7188C5.36604 10.7188 3.70898 9.06169 3.70898 7.02734C3.70898 4.99294 5.36604 3.33594 7.40039 3.33594C9.43474 3.33594 11.0918 4.99294 11.0918 7.02734C11.0918 9.06169 9.43474 10.7188 7.40039 10.7188ZM11.9121 3.33594C11.4609 3.33594 11.0918 2.9668 11.0918 2.51562C11.0918 2.06445 11.4609 1.69531 11.9121 1.69531C12.3633 1.69531 12.7324 2.06445 12.7324 2.51562C12.7324 2.9668 12.3633 3.33594 11.9121 3.33594ZM7.40039 4.15625C5.81719 4.15625 4.5293 5.44414 4.5293 7.02734C4.5293 8.61055 5.81719 9.89844 7.40039 9.89844C8.98359 9.89844 10.2715 8.61055 10.2715 7.02734C10.2715 5.44414 8.98359 4.15625 7.40039 4.15625ZM7.40039 4.15625C5.81719 4.15625 4.5293 5.44414 4.5293 7.02734C4.5293 8.61055 5.81719 9.89844 7.40039 9.89844C8.98359 9.89844 10.2715 8.61055 10.2715 7.02734C10.2715 5.44414 8.98359 4.15625 7.40039 4.15625ZM7.40039 4.15625C5.81719 4.15625 4.5293 5.44414 4.5293 7.02734C4.5293 8.61055 5.81719 9.89844 7.40039 9.89844C8.98359 9.89844 10.2715 8.61055 10.2715 7.02734C10.2715 5.44414 8.98359 4.15625 7.40039 4.15625Z"/>
    </symbol>

    <symbol id="arrow-btn" viewBox="0 0 75 16">
        <path d="M74.7071 8.70711C75.0976 8.31658 75.0976 7.68342 74.7071 7.29289L68.3431 0.928932C67.9526 0.538408 67.3195 0.538408 66.9289 0.928932C66.5384 1.31946 66.5384 1.95262 66.9289 2.34315L72.5858 8L66.9289 13.6569C66.5384 14.0474 66.5384 14.6805 66.9289 15.0711C67.3195 15.4616 67.9526 15.4616 68.3431 15.0711L74.7071 8.70711ZM0 9H74V7H0V9Z"/>
    </symbol>

    <symbol id="arrow-right-line" viewBox="0 0 239 24">
        <path d="M238.061 13.0607C238.646 12.4749 238.646 11.5251 238.061 10.9393L228.515 1.3934C227.929 0.807611 226.979 0.807611 226.393 1.3934C225.808 1.97919 225.808 2.92893 226.393 3.51472L234.879 12L226.393 20.4853C225.808 21.0711 225.808 22.0208 226.393 22.6066C226.979 23.1924 227.929 23.1924 228.515 22.6066L238.061 13.0607ZM0 13.5H237V10.5H0V13.5Z"/>
    </symbol>


    <symbol id="close" viewBox="0 0 21 23">
        <path d="M11.6601 11.3694L20.7597 1.51635C21.0801 1.16945 21.0801 0.607028 20.7597 0.260174C20.4393 -0.0866802 19.9199 -0.0867246 19.5996 0.260174L10.5 10.1132L1.4004 0.260174C1.08003 -0.0867246 0.56061 -0.0867246 0.240279 0.260174C-0.080052 0.607072 -0.080093 1.1695 0.240279 1.51635L9.33986 11.3694L0.240279 21.2224C-0.080093 21.5693 -0.080093 22.1317 0.240279 22.4786C0.400445 22.652 0.610403 22.7387 0.820361 22.7387C1.03032 22.7387 1.24024 22.652 1.40044 22.4786L10.5 12.6256L19.5996 22.4786C19.7597 22.652 19.9697 22.7387 20.1796 22.7387C20.3896 22.7387 20.5995 22.652 20.7597 22.4786C21.0801 22.1317 21.0801 21.5693 20.7597 21.2224L11.6601 11.3694Z"/>
    </symbol>

    <symbol id="arrow-top" viewBox="0 0 19 11">
        <path d="M9.53338 0.120964C9.85657 0.120964 10.1797 0.244365 10.4261 0.49065L18.18 8.24459C18.6732 8.73784 18.6732 9.53756 18.18 10.0306C17.6869 10.5237 16.8874 10.5237 16.3941 10.0306L9.53338 3.16949L2.67262 10.0304C2.17937 10.5234 1.37989 10.5234 0.886887 10.0304C0.3934 9.53732 0.3934 8.7376 0.886886 8.24436L8.64063 0.490411C8.88716 0.244086 9.21031 0.120964 9.53338 0.120964Z"/>
    </symbol>

    <symbol id="arrow-bottom" viewBox="0 0 15 9">
        <path d="M7.49997 8.92495C7.23114 8.92495 6.96235 8.82231 6.75739 8.61745L0.307713 2.16771C-0.102571 1.75742 -0.102571 1.09222 0.307713 0.6821C0.71783 0.271982 1.3829 0.271982 1.79322 0.6821L7.49997 6.38919L13.2068 0.682299C13.617 0.272182 14.2821 0.272182 14.6921 0.682299C15.1026 1.09242 15.1026 1.75762 14.6921 2.1679L8.24256 8.61765C8.0375 8.82254 7.76871 8.92495 7.49997 8.92495Z"/>
    </symbol>

    <symbol id="arrow-left" viewBox="0 0 13 23">
        <path d="M-0.000140673 11.0407C-0.000140655 10.6449 0.150963 10.2492 0.452536 9.94751L9.94716 0.452982C10.5511 -0.150994 11.5304 -0.150994 12.1341 0.452982C12.7378 1.05671 12.7378 2.03576 12.1341 2.63979L3.73274 11.0407L12.1338 19.4416C12.7376 20.0456 12.7376 21.0245 12.1338 21.6282C11.5301 22.2325 10.5508 22.2325 9.94687 21.6282L0.452242 12.1338C0.150621 11.832 -0.00014069 11.4363 -0.000140673 11.0407Z"/>
    </symbol>

    <symbol id="arrow-right" viewBox="0 0 13 23">
        <path d="M12.5871 11.0409C12.5871 11.4366 12.4359 11.8323 12.1344 12.134L2.63975 21.6286C2.03577 22.2325 1.05653 22.2325 0.452799 21.6286C-0.150933 21.0248 -0.150933 20.0458 0.452799 19.4418L8.85417 11.0409L0.453091 2.63994C-0.15064 2.03596 -0.15064 1.05701 0.453091 0.453331C1.05682 -0.150938 2.03607 -0.150938 2.64004 0.453331L12.1347 9.94771C12.4363 10.2496 12.5871 10.6453 12.5871 11.0409Z"/>
    </symbol>

    <symbol id="star" viewBox="0 0 18 18">
        <path d="M17.9531 6.90472C17.8352 6.54024 17.512 6.28137 17.1295 6.2469L11.9342 5.77516L9.87984 0.966735C9.72837 0.61434 9.38339 0.38623 9.00009 0.38623C8.6168 0.38623 8.27182 0.61434 8.12034 0.967559L6.06598 5.77516L0.869863 6.2469C0.488078 6.28219 0.165621 6.54024 0.0471028 6.90472C-0.0714152 7.2692 0.0380389 7.66898 0.326849 7.92098L4.25388 11.365L3.09589 16.466C3.01115 16.841 3.15673 17.2287 3.46792 17.4537C3.63519 17.5745 3.83089 17.636 4.02824 17.636C4.19839 17.636 4.36718 17.5902 4.51865 17.4995L9.00009 14.8211L13.4799 17.4995C13.8077 17.6967 14.2209 17.6787 14.5314 17.4537C14.8428 17.228 14.9882 16.8402 14.9035 16.466L13.7455 11.365L17.6725 7.92167C17.9613 7.66898 18.0716 7.26989 17.9531 6.90472V6.90472Z"/>
    </symbol>

    <symbol id="star0" viewBox="0 0 18 18">
        <path d="M17.0843 6.74485L17.0846 6.74488C17.2672 6.76134 17.4211 6.88452 17.4773 7.05853L17.9528 6.9048L17.4775 7.05908C17.5342 7.23384 17.4817 7.42426 17.3433 7.54537L17.3429 7.54572L13.4158 10.9891L13.192 11.1854L13.2579 11.4757L14.4158 16.5764C14.4565 16.756 14.3869 16.9409 14.238 17.0488L14.238 17.0488C14.0894 17.1566 13.8931 17.1646 13.7376 17.0711L13.7365 17.0704L9.25667 14.392L9.00014 14.2386L8.74358 14.3919L4.26214 17.0703L4.26192 17.0705C4.18785 17.1148 4.10776 17.136 4.02824 17.136C3.9355 17.136 3.84236 17.1073 3.76074 17.0484C3.61285 16.9414 3.5428 16.7571 3.58354 16.5764C3.58356 16.5763 3.58358 16.5762 3.5836 16.5761L4.74147 11.4757L4.80737 11.1854L4.58355 10.9891L0.65653 7.54507L0.655581 7.54424C0.518483 7.42461 0.465722 7.23425 0.522596 7.05934C0.579402 6.88464 0.733052 6.76178 0.915643 6.7448C0.915725 6.74479 0.915807 6.74478 0.915889 6.74478L6.11119 6.27311L6.40847 6.24613L6.52576 5.97163L8.57986 1.16463C8.57992 1.16449 8.57998 1.16436 8.58004 1.16423C8.65316 0.994161 8.81785 0.88623 9.00009 0.88623C9.18257 0.88623 9.34737 0.994421 9.42036 1.1639C9.4204 1.164 9.42044 1.16409 9.42048 1.16419L11.4744 5.97161L11.5917 6.24612L11.889 6.27311L17.0843 6.74485Z"/>
    </symbol>

    <symbol id="plus" viewBox="0 0 26 26">
        <path d="M24.9844 11.9844H14.0156V1.01562C14.0156 0.454695 13.5609 0 13 0C12.4391 0 11.9844 0.454695 11.9844 1.01562V11.9844H1.01562C0.454695 11.9844 0 12.4391 0 13C0 13.5609 0.454695 14.0156 1.01562 14.0156H11.9844V24.9844C11.9844 25.5453 12.4391 26 13 26C13.5609 26 14.0156 25.5453 14.0156 24.9844V14.0156H24.9844C25.5453 14.0156 26 13.5609 26 13C26 12.4391 25.5453 11.9844 24.9844 11.9844Z"/>
    </symbol>

</svg>